<svg width="24" height="24" viewBox="0 0 24 24" fill="none" xmlns="http://www.w3.org/2000/svg">
<path d="M12 1C12.2652 1 12.5196 1.10536 12.7071 1.29289C12.8946 1.48043 13 1.73478 13 2V9.586L18.364 4.222C18.4562 4.12649 18.5666 4.05031 18.6886 3.9979C18.8106 3.94549 18.9418 3.9179 19.0746 3.91675C19.2074 3.91559 19.3391 3.9409 19.462 3.99118C19.5849 4.04146 19.6965 4.11571 19.7904 4.2096C19.8843 4.3035 19.9585 4.41515 20.0088 4.53805C20.0591 4.66094 20.0844 4.79262 20.0833 4.9254C20.0821 5.05818 20.0545 5.1894 20.0021 5.3114C19.9497 5.43341 19.8735 5.54375 19.778 5.636L14.414 11H22C22.2652 11 22.5196 11.1054 22.7071 11.2929C22.8946 11.4804 23 11.7348 23 12C23 12.2652 22.8946 12.5196 22.7071 12.7071C22.5196 12.8946 22.2652 13 22 13H14.414L19.778 18.364C19.9602 18.5526 20.061 18.8052 20.0587 19.0674C20.0564 19.3296 19.9512 19.5804 19.7658 19.7658C19.5804 19.9512 19.3296 20.0564 19.0674 20.0587C18.8052 20.061 18.5526 19.9602 18.364 19.778L13 14.414V22C13 22.2652 12.8946 22.5196 12.7071 22.7071C12.5196 22.8946 12.2652 23 12 23C11.7348 23 11.4804 22.8946 11.2929 22.7071C11.1054 22.5196 11 22.2652 11 22V14.414L5.636 19.778C5.4474 19.9602 5.1948 20.061 4.9326 20.0587C4.6704 20.0564 4.41959 19.9512 4.23418 19.7658C4.04877 19.5804 3.94361 19.3296 3.94133 19.0674C3.93905 18.8052 4.03984 18.5526 4.222 18.364L9.586 13H2C1.73478 13 1.48043 12.8946 1.29289 12.7071C1.10536 12.5196 1 12.2652 1 12C1 11.7348 1.10536 11.4804 1.29289 11.2929C1.48043 11.1054 1.73478 11 2 11H9.586L4.222 5.636C4.12649 5.54375 4.05031 5.43341 3.9979 5.3114C3.94549 5.1894 3.9179 5.05818 3.91675 4.9254C3.9156 4.79262 3.9409 4.66094 3.99118 4.53805C4.04146 4.41515 4.11571 4.3035 4.2096 4.2096C4.3035 4.11571 4.41515 4.04146 4.53805 3.99118C4.66094 3.9409 4.79262 3.91559 4.9254 3.91675C5.05818 3.9179 5.1894 3.94549 5.3114 3.9979C5.43341 4.05031 5.54375 4.12649 5.636 4.222L11 9.586V2C11 1.73478 11.1054 1.48043 11.2929 1.29289C11.4804 1.10536 11.7348 1 12 1Z" fill="black"/>
</svg>
