<svg width="24" height="24" viewBox="0 0 24 24" fill="none" xmlns="http://www.w3.org/2000/svg">
<path d="M16.2002 2C17.0237 2 17.7016 1.99898 18.252 2.04394C18.814 2.08987 19.3311 2.18827 19.8164 2.43554C20.5689 2.81901 21.181 3.43109 21.5645 4.18359C21.8117 4.6689 21.9101 5.18599 21.9561 5.74804C22.001 6.29842 22 6.97631 22 7.7998V16.2002C22 17.0237 22.001 17.7016 21.9561 18.252C21.9101 18.814 21.8117 19.3311 21.5645 19.8164C21.181 20.5689 20.5689 21.181 19.8164 21.5645C19.3311 21.8117 18.814 21.9101 18.252 21.9561C17.7016 22.001 17.0237 22 16.2002 22H7.79981C6.97632 22 6.29843 22.001 5.74805 21.9561C5.18599 21.9101 4.6689 21.8117 4.1836 21.5645C3.43109 21.181 2.81902 20.5689 2.43555 19.8164C2.18827 19.3311 2.08988 18.814 2.04395 18.252C1.99898 17.7016 2 17.0237 2 16.2002V12C2 11.4477 2.44772 11 3 11C3.55229 11 4 11.4477 4 12V16.2002C4 17.0566 4.00035 17.6388 4.03711 18.0889C4.07293 18.5273 4.13809 18.7518 4.21778 18.9082C4.40951 19.2845 4.71555 19.5905 5.0918 19.7822C5.2482 19.8619 5.47272 19.9271 5.91113 19.9629C6.36117 19.9996 6.94342 20 7.79981 20H16.2002C17.0566 20 17.6388 19.9996 18.0889 19.9629C18.5273 19.9271 18.7518 19.8619 18.9082 19.7822C19.2845 19.5905 19.5905 19.2845 19.7822 18.9082C19.8619 18.7518 19.9271 18.5273 19.9629 18.0889C19.9997 17.6388 20 17.0566 20 16.2002V7.7998C20 6.94341 19.9997 6.36117 19.9629 5.91113C19.9271 5.47272 19.8619 5.24819 19.7822 5.09179C19.5905 4.71554 19.2845 4.40951 18.9082 4.21777C18.7518 4.13808 18.5273 4.07293 18.0889 4.03711C17.6388 4.00035 17.0566 4 16.2002 4H12C11.4477 4 11 3.55228 11 3C11 2.44771 11.4477 2 12 2H16.2002Z" fill="black"/>
<path d="M3.29297 3.29297C3.68349 2.90244 4.31651 2.90244 4.70703 3.29297L13 11.5859V9C13 8.44772 13.4477 8 14 8C14.5523 8 15 8.44771 15 9V13C15 14.1046 14.1046 15 13 15H9C8.44772 15 8.00001 14.5523 8 14C8 13.4477 8.44772 13 9 13H11.5859L3.29297 4.70703C2.90245 4.3165 2.90245 3.68349 3.29297 3.29297Z" fill="black"/>
</svg>
