<svg width="24" height="24" viewBox="0 0 24 24" fill="none" xmlns="http://www.w3.org/2000/svg">
<path fill-rule="evenodd" clip-rule="evenodd" d="M12.8436 2.29283C13.2341 1.90243 13.8671 1.90235 14.2576 2.29283L21.2576 9.29283C21.6478 9.68334 21.6479 10.3164 21.2576 10.7069C20.8672 11.0973 20.2341 11.0972 19.8436 10.7069L19.6453 10.5087L13.865 17.9715L14.657 18.7635C15.0473 19.1541 15.0475 19.7872 14.657 20.1776C14.2666 20.568 13.6335 20.5679 13.243 20.1776L8.99883 15.9344L3.70684 21.2274C3.31631 21.6179 2.68328 21.6179 2.29278 21.2274C1.90245 20.8369 1.90236 20.2038 2.29278 19.8133L7.58477 14.5204L3.34356 10.2782C2.95303 9.88766 2.95303 9.25465 3.34356 8.86412C3.73408 8.4736 4.3671 8.4736 4.75762 8.86412L5.55352 9.66002L13.0828 3.94615L12.8436 3.70689C12.453 3.31637 12.453 2.68336 12.8436 2.29283ZM6.98223 11.0887L12.4402 16.5467L18.2205 9.08385L14.5105 5.37389L6.98223 11.0887Z" fill="black"/>
</svg>
