<svg width="330" height="420" viewBox="0 0 330 420" fill="none" xmlns="http://www.w3.org/2000/svg">
<path d="M25 80H305L289.979 305.322C288.225 331.626 287.348 344.778 281.667 354.75C276.665 363.53 269.121 370.588 260.028 374.995C249.699 380 236.518 380 210.156 380H119.844C93.4817 380 80.3005 380 69.9723 374.995C60.8793 370.588 53.3348 363.53 48.333 354.75C42.6518 344.778 41.775 331.626 40.0214 305.322L25 80Z" fill="#D9D9D9"/>
<path d="M25 80H305L289.979 305.322C288.225 331.626 287.348 344.778 281.667 354.75C276.665 363.53 269.121 370.588 260.028 374.995C249.699 380 236.518 380 210.156 380H119.844C93.4817 380 80.3005 380 69.9723 374.995C60.8793 370.588 53.3348 363.53 48.333 354.75C42.6518 344.778 41.775 331.626 40.0214 305.322L25 80Z" fill="url(#paint0_linear_201_216)"/>
<path d="M304.994 80.1777L302.494 115.178L302.493 115.177C301.021 138.961 281.303 157.5 257.471 157.5H72.5293C48.6891 157.5 28.9652 138.949 27.5049 115.153L25.0068 80.1777L29.9932 79.8223L32.4932 114.822L32.4941 114.834L32.4951 114.847C33.7935 136.005 51.3315 152.5 72.5293 152.5H257.471C278.669 152.5 296.207 136.005 297.505 114.847L297.506 114.834L297.507 114.822L300.007 79.8223L304.994 80.1777Z" fill="url(#paint1_linear_201_216)" fill-opacity="0.15"/>
<path d="M155.459 133.11C155.944 133.11 156.373 133.165 156.743 133.271C157.113 133.373 157.449 133.519 157.754 133.711C158.059 133.898 158.261 134.073 158.359 134.238C158.463 134.403 158.499 134.584 158.467 134.775C158.434 134.961 158.336 135.108 158.179 135.22C158.021 135.337 157.859 135.395 157.69 135.396C157.522 135.39 157.376 135.34 157.256 135.244C157.142 135.149 156.991 135.048 156.807 134.941C156.627 134.83 156.428 134.746 156.211 134.692C155.999 134.634 155.751 134.605 155.469 134.604C155.001 134.604 154.628 134.697 154.355 134.878C154.085 135.053 153.951 135.272 153.95 135.532C153.95 135.766 154.048 135.972 154.243 136.147C154.445 136.318 155.056 136.544 156.074 136.821C157.097 137.093 157.834 137.436 158.286 137.847C158.742 138.257 158.969 138.801 158.97 139.482C158.97 140.292 158.642 140.945 157.983 141.44C157.33 141.936 156.496 142.188 155.483 142.188C154.858 142.187 154.323 142.107 153.877 141.953C153.431 141.799 153.042 141.585 152.715 141.313C152.396 141.038 152.18 140.793 152.065 140.581C151.951 140.362 151.923 140.153 151.982 139.961C152.042 139.77 152.152 139.622 152.314 139.521C152.488 139.426 152.667 139.388 152.847 139.409C153.026 139.425 153.176 139.509 153.296 139.653C153.416 139.792 153.582 139.951 153.794 140.132C154.012 140.308 154.263 140.446 154.546 140.547C154.829 140.643 155.149 140.688 155.508 140.688C156.008 140.688 156.41 140.592 156.709 140.396C157.008 140.193 157.158 139.925 157.158 139.595C157.158 139.255 157.016 138.99 156.729 138.804C156.44 138.617 155.925 138.433 155.19 138.252C154.042 137.969 153.252 137.622 152.822 137.212C152.398 136.802 152.188 136.253 152.188 135.566C152.188 134.836 152.495 134.242 153.11 133.789C153.725 133.337 154.508 133.111 155.459 133.11Z" fill="url(#paint2_linear_201_216)"/>
<path d="M177.998 133.11C178.472 133.11 178.897 133.161 179.272 133.262C179.654 133.363 179.998 133.505 180.303 133.687C180.607 133.862 180.838 134.042 180.996 134.229C181.148 134.415 181.217 134.621 181.201 134.844C181.19 135.062 181.105 135.242 180.947 135.381C180.774 135.53 180.586 135.605 180.386 135.605C180.19 135.6 179.991 135.533 179.795 135.405C179.653 135.304 179.499 135.204 179.336 135.103C179.178 135.002 178.987 134.921 178.765 134.868C178.547 134.81 178.279 134.78 177.964 134.78C177.187 134.781 176.541 135.045 176.03 135.571C175.519 136.099 175.264 136.794 175.264 137.646C175.264 138.504 175.523 139.194 176.04 139.722C176.562 140.249 177.203 140.512 177.964 140.513C178.284 140.513 178.569 140.479 178.813 140.41C179.063 140.341 179.262 140.261 179.409 140.171C179.562 140.08 179.712 139.976 179.854 139.858C180.076 139.683 180.288 139.587 180.488 139.565C180.69 139.544 180.888 139.603 181.084 139.741C181.264 139.869 181.374 140.045 181.406 140.269C181.444 140.492 181.383 140.71 181.23 140.923C181.105 141.098 180.883 141.296 180.557 141.509C180.23 141.722 179.845 141.885 179.404 142.002C178.963 142.125 178.477 142.188 177.949 142.188C176.545 142.187 175.419 141.756 174.57 140.898C173.727 140.035 173.301 138.952 173.301 137.646C173.301 136.346 173.722 135.263 174.561 134.404C175.404 133.541 176.551 133.11 177.998 133.11Z" fill="url(#paint3_linear_201_216)"/>
<path d="M132.524 131.118C132.791 131.118 133.018 131.215 133.203 131.401C133.392 131.587 133.486 131.81 133.486 132.07V133.389H135.049C135.276 133.389 135.468 133.469 135.625 133.623C135.782 133.777 135.864 133.962 135.864 134.18C135.864 134.393 135.783 134.581 135.625 134.741C135.468 134.895 135.276 134.975 135.049 134.976H133.486V139.458C133.486 139.826 133.576 140.106 133.75 140.293C133.924 140.478 134.193 140.571 134.551 140.571C134.67 140.571 134.792 140.558 134.917 140.537C135.041 140.516 135.177 140.504 135.322 140.493C135.469 140.477 135.607 140.506 135.732 140.586C135.863 140.666 135.952 140.792 136.001 140.957C136.06 141.132 136.065 141.296 136.011 141.45C135.962 141.604 135.864 141.726 135.718 141.816C135.571 141.907 135.36 141.991 135.088 142.065C134.816 142.14 134.5 142.178 134.141 142.178C133.34 142.178 132.713 141.96 132.256 141.528C131.799 141.092 131.568 140.468 131.567 139.653V134.976H130.815C130.593 134.975 130.402 134.895 130.239 134.741C130.081 134.581 130 134.393 130 134.18C130.001 133.962 130.082 133.777 130.239 133.623C130.402 133.469 130.593 133.389 130.815 133.389H131.567V132.07C131.568 131.81 131.661 131.588 131.846 131.401C132.036 131.215 132.263 131.118 132.524 131.118Z" fill="url(#paint4_linear_201_216)"/>
<path fill-rule="evenodd" clip-rule="evenodd" d="M146.831 133.11C147.991 133.11 148.926 133.407 149.634 133.999C150.341 134.585 150.693 135.405 150.693 136.455V141.089C150.693 141.345 150.604 141.562 150.425 141.738C150.246 141.914 150.034 142.002 149.79 142.002C149.534 142.002 149.315 141.918 149.136 141.753C148.957 141.583 148.867 141.382 148.867 141.147V140.796H148.818C148.557 141.174 148.172 141.501 147.666 141.772C147.16 142.044 146.56 142.178 145.869 142.178C144.934 142.178 144.164 141.926 143.56 141.421C142.955 140.915 142.651 140.203 142.651 139.292C142.651 138.375 142.983 137.656 143.647 137.139C144.312 136.617 145.179 136.357 146.245 136.357C146.762 136.358 147.232 136.416 147.656 136.533C148.081 136.645 148.462 136.8 148.794 136.997V136.455C148.794 135.853 148.591 135.401 148.188 135.107C147.786 134.809 147.271 134.663 146.646 134.663C146.308 134.663 146.008 134.696 145.752 134.766C145.502 134.83 145.262 134.922 145.034 135.039C144.806 135.156 144.611 135.261 144.453 135.356C144.301 135.452 144.13 135.486 143.94 135.459C143.75 135.427 143.587 135.339 143.457 135.19C143.332 135.047 143.284 134.87 143.306 134.663C143.327 134.45 143.424 134.265 143.599 134.116C143.778 133.962 144.03 133.802 144.355 133.638C144.682 133.467 145.039 133.338 145.42 133.247C145.806 133.157 146.276 133.11 146.831 133.11ZM146.626 137.603C145.991 137.603 145.491 137.746 145.127 138.027C144.762 138.304 144.58 138.694 144.58 139.194C144.58 139.69 144.738 140.079 145.054 140.356C145.375 140.627 145.817 140.762 146.382 140.762C147.068 140.762 147.647 140.532 148.115 140.068C148.589 139.599 148.823 139.043 148.823 138.403V138.34C148.557 138.111 148.228 137.931 147.837 137.803C147.445 137.669 147.04 137.603 146.626 137.603Z" fill="url(#paint5_linear_201_216)"/>
<path fill-rule="evenodd" clip-rule="evenodd" d="M186.27 133.11C187.428 133.111 188.36 133.408 189.067 133.999C189.775 134.585 190.132 135.405 190.132 136.455V141.089C190.132 141.345 190.038 141.562 189.858 141.738C189.679 141.913 189.468 142.002 189.224 142.002C188.968 142.002 188.749 141.918 188.569 141.753C188.391 141.583 188.301 141.381 188.301 141.147V140.796H188.252C187.991 141.174 187.606 141.501 187.1 141.772C186.594 142.044 185.993 142.178 185.303 142.178C184.368 142.178 183.597 141.926 182.993 141.421C182.389 140.915 182.085 140.203 182.085 139.292C182.085 138.375 182.417 137.656 183.081 137.139C183.745 136.616 184.612 136.358 185.679 136.357C186.196 136.357 186.67 136.416 187.095 136.533C187.518 136.645 187.896 136.8 188.228 136.997V136.455C188.228 135.853 188.025 135.401 187.622 135.107C187.219 134.81 186.704 134.663 186.079 134.663C185.742 134.663 185.446 134.697 185.19 134.766C184.94 134.83 184.701 134.922 184.473 135.039C184.244 135.156 184.049 135.261 183.892 135.356C183.74 135.452 183.569 135.485 183.379 135.459C183.189 135.427 183.026 135.339 182.896 135.19C182.771 135.047 182.718 134.87 182.739 134.663C182.761 134.45 182.858 134.265 183.032 134.116C183.212 133.962 183.467 133.803 183.794 133.638C184.12 133.468 184.473 133.338 184.854 133.247C185.24 133.156 185.714 133.11 186.27 133.11ZM186.064 137.603C185.428 137.603 184.925 137.745 184.561 138.027C184.196 138.304 184.014 138.694 184.014 139.194C184.014 139.69 184.172 140.079 184.487 140.356C184.808 140.628 185.255 140.762 185.82 140.762C186.505 140.761 187.081 140.531 187.549 140.068C188.022 139.599 188.262 139.043 188.262 138.403V138.34C187.995 138.111 187.663 137.931 187.271 137.803C186.879 137.67 186.477 137.603 186.064 137.603Z" fill="url(#paint6_linear_201_216)"/>
<path d="M141.982 133.164C142.178 133.201 142.345 133.264 142.476 133.35C142.606 133.435 142.703 133.557 142.773 133.711C142.844 133.866 142.861 134.041 142.817 134.238C142.768 134.43 142.679 134.58 142.554 134.692C142.434 134.798 142.308 134.866 142.173 134.893C142.037 134.919 141.886 134.919 141.724 134.888C141.566 134.856 141.416 134.839 141.274 134.839C140.66 134.839 140.145 135.061 139.731 135.508C139.323 135.956 139.116 136.608 139.116 137.461V141.05C139.116 141.31 139.022 141.537 138.833 141.729C138.643 141.915 138.415 142.012 138.154 142.012C137.893 142.012 137.666 141.915 137.476 141.729C137.286 141.537 137.188 141.311 137.188 141.05V134.199C137.188 133.949 137.281 133.735 137.461 133.56C137.64 133.384 137.851 133.296 138.096 133.296C138.346 133.296 138.561 133.379 138.735 133.55C138.914 133.72 139.004 133.926 139.004 134.165V134.692H139.058C139.237 134.224 139.546 133.843 139.98 133.55C140.421 133.257 140.908 133.111 141.436 133.11C141.609 133.11 141.792 133.127 141.982 133.164Z" fill="url(#paint7_linear_201_216)"/>
<path d="M161.157 130C161.419 130 161.646 130.092 161.831 130.278C162.021 130.465 162.114 130.691 162.114 130.952V134.551H162.173C162.456 134.14 162.849 133.797 163.35 133.525C163.856 133.254 164.46 133.12 165.161 133.12C166.152 133.12 166.921 133.387 167.466 133.926C168.015 134.458 168.291 135.192 168.291 136.123V141.05C168.291 141.316 168.193 141.542 168.003 141.729C167.812 141.915 167.586 142.012 167.324 142.012C167.058 142.011 166.831 141.915 166.641 141.729C166.45 141.542 166.353 141.316 166.353 141.05V136.582C166.353 135.943 166.195 135.465 165.874 135.156C165.558 134.847 165.088 134.693 164.468 134.692C163.782 134.692 163.219 134.914 162.778 135.352C162.343 135.788 162.124 136.311 162.124 136.924V141.05C162.124 141.316 162.026 141.542 161.836 141.729C161.651 141.915 161.424 142.012 161.157 142.012C160.897 142.011 160.673 141.915 160.483 141.729C160.293 141.542 160.195 141.316 160.195 141.05V130.952C160.195 130.691 160.293 130.465 160.483 130.278C160.673 130.093 160.898 130.001 161.157 130Z" fill="url(#paint8_linear_201_216)"/>
<path d="M196.841 133.12C197.841 133.12 198.615 133.388 199.165 133.926C199.72 134.458 200 135.191 200 136.123V141.05C200 141.316 199.902 141.542 199.712 141.729C199.522 141.915 199.299 142.011 199.038 142.012C198.771 142.012 198.54 141.915 198.35 141.729C198.16 141.542 198.066 141.316 198.066 141.05V136.587C198.066 135.985 197.916 135.52 197.617 135.195C197.323 134.865 196.84 134.702 196.172 134.702C195.497 134.702 194.938 134.912 194.497 135.332C194.056 135.753 193.833 136.289 193.833 136.934V141.05C193.833 141.316 193.739 141.542 193.55 141.729C193.365 141.915 193.138 142.012 192.871 142.012C192.61 142.012 192.383 141.915 192.192 141.729C192.003 141.542 191.909 141.316 191.909 141.05V134.204C191.91 133.954 191.999 133.74 192.178 133.564C192.363 133.384 192.582 133.296 192.832 133.296C193.082 133.296 193.297 133.38 193.477 133.55C193.661 133.72 193.755 133.926 193.755 134.165V134.59H193.804C194.103 134.148 194.516 133.792 195.044 133.525C195.572 133.254 196.172 133.12 196.841 133.12Z" fill="url(#paint9_linear_201_216)"/>
<path d="M265 40C287.091 40 305 57.9086 305 80C305 102.091 287.091 120 265 120H65C42.9086 120 25 102.091 25 80C25 57.9086 42.9086 40 65 40H265Z" fill="url(#paint10_linear_201_216)"/>
<path fill-rule="evenodd" clip-rule="evenodd" d="M265 40C287.091 40 305 57.9086 305 80C305 102.091 287.091 120 265 120H65L63.9678 119.987C42.3534 119.44 25 101.746 25 80C25 57.9086 42.9086 40 65 40H265ZM65 45C45.67 45 30 60.67 30 80C30 99.33 45.67 115 65 115H265C284.33 115 300 99.33 300 80C300 60.67 284.33 45 265 45H65Z" fill="url(#paint11_linear_201_216)"/>
<defs>
<linearGradient id="paint0_linear_201_216" x1="305" y1="210" x2="25.0213" y2="212.442" gradientUnits="userSpaceOnUse">
<stop stop-color="#D9D9D9"/>
<stop offset="0.0947141" stop-color="#F8F8F8"/>
<stop offset="0.269268" stop-color="#E6E6E6"/>
<stop offset="0.698942" stop-color="#DEDEDE"/>
<stop offset="1" stop-color="#CDCDCD"/>
</linearGradient>
<linearGradient id="paint1_linear_201_216" x1="32.9935" y1="498.181" x2="337.245" y2="473.519" gradientUnits="userSpaceOnUse">
<stop stop-color="#CECECE"/>
<stop offset="0.12984" stop-color="#CECECE"/>
<stop offset="0.211574" stop-color="#999999"/>
<stop offset="0.764481" stop-color="#A8A4A4"/>
<stop offset="1" stop-color="#DFDFDF"/>
</linearGradient>
<linearGradient id="paint2_linear_201_216" x1="25" y1="210" x2="305" y2="210" gradientUnits="userSpaceOnUse">
<stop stop-color="#A3A3A3"/>
<stop offset="1" stop-color="#B4B4B4"/>
</linearGradient>
<linearGradient id="paint3_linear_201_216" x1="25" y1="210" x2="305" y2="210" gradientUnits="userSpaceOnUse">
<stop stop-color="#A3A3A3"/>
<stop offset="1" stop-color="#B4B4B4"/>
</linearGradient>
<linearGradient id="paint4_linear_201_216" x1="25" y1="210" x2="305" y2="210" gradientUnits="userSpaceOnUse">
<stop stop-color="#A3A3A3"/>
<stop offset="1" stop-color="#B4B4B4"/>
</linearGradient>
<linearGradient id="paint5_linear_201_216" x1="25" y1="210" x2="305" y2="210" gradientUnits="userSpaceOnUse">
<stop stop-color="#A3A3A3"/>
<stop offset="1" stop-color="#B4B4B4"/>
</linearGradient>
<linearGradient id="paint6_linear_201_216" x1="25" y1="210" x2="305" y2="210" gradientUnits="userSpaceOnUse">
<stop stop-color="#A3A3A3"/>
<stop offset="1" stop-color="#B4B4B4"/>
</linearGradient>
<linearGradient id="paint7_linear_201_216" x1="25" y1="210" x2="305" y2="210" gradientUnits="userSpaceOnUse">
<stop stop-color="#A3A3A3"/>
<stop offset="1" stop-color="#B4B4B4"/>
</linearGradient>
<linearGradient id="paint8_linear_201_216" x1="25" y1="210" x2="305" y2="210" gradientUnits="userSpaceOnUse">
<stop stop-color="#A3A3A3"/>
<stop offset="1" stop-color="#B4B4B4"/>
</linearGradient>
<linearGradient id="paint9_linear_201_216" x1="25" y1="210" x2="305" y2="210" gradientUnits="userSpaceOnUse">
<stop stop-color="#A3A3A3"/>
<stop offset="1" stop-color="#B4B4B4"/>
</linearGradient>
<linearGradient id="paint10_linear_201_216" x1="165" y1="40" x2="165" y2="380" gradientUnits="userSpaceOnUse">
<stop stop-color="#BEBEBE"/>
<stop offset="1" stop-color="#ACACAC"/>
</linearGradient>
<linearGradient id="paint11_linear_201_216" x1="165" y1="120" x2="165" y2="40" gradientUnits="userSpaceOnUse">
<stop stop-color="#E9E9E9"/>
<stop offset="1" stop-color="#CECECE"/>
</linearGradient>
</defs>
</svg>
