<svg width="286" height="334" viewBox="0 0 286 334" fill="none" xmlns="http://www.w3.org/2000/svg">
<path d="M266.544 267.522C265.024 290.694 264.263 302.28 259.267 311.065C254.868 318.8 248.227 325.02 240.221 328.903C231.127 333.314 219.516 333.314 196.295 333.314H89.7969C66.5757 333.314 54.9651 333.314 45.8711 328.903C37.8648 325.02 31.2232 318.8 26.8242 311.065C21.8279 302.28 21.0679 290.694 19.5479 267.522L4 30.5234H282.091L266.544 267.522Z" fill="url(#paint0_linear_205_31)"/>
<path d="M12.5898 60.1436L12.5938 60.2002C13.8484 78.6704 29.1972 93.0115 47.71 93.0117H238.07C256.515 93.0117 271.819 78.7499 273.118 60.3516L273.12 60.3281L273.122 60.3057L275.738 28.4746L282 29.2676L280 60.7676L280.001 60.7686C278.406 83.3561 260.714 101.012 238.07 101.012H47.71C25.0079 101.012 7.56681 83.4091 6 60.7676L4 29.2676L9.97266 28.3115L12.5898 60.1436Z" fill="url(#paint1_linear_205_31)" fill-opacity="0.15"/>
<path d="M235.743 0C263.142 0.000104284 282.091 11.6431 282.091 30.5234C282.091 49.4037 266.801 64.7088 238.183 64.709H47.9092C19.2905 64.7089 4.00003 49.4038 4 30.5234C4 11.6431 22.9495 6.21384e-05 50.3486 0H235.743Z" fill="url(#paint2_linear_205_31)"/>
<path fill-rule="evenodd" clip-rule="evenodd" d="M235.743 0C263.142 0.000104284 282.091 11.6431 282.091 30.5234L282.08 31.4053C281.61 49.8781 266.355 64.709 238.183 64.709H47.9092L46.5771 64.6982C19.2567 64.2375 4.47298 49.5847 4.01074 31.4053L4 30.5234C4.00008 11.9382 22.3619 0.366002 49.0703 0.00878906L50.3486 0H235.743ZM50.3486 8C37.6477 8.00005 27.7183 10.7185 21.2393 14.9023C15.0106 18.9246 12 24.1902 12 30.5234C12 37.6677 14.8282 43.9391 20.3535 48.5586C25.9758 53.2589 34.9815 56.7089 47.9092 56.709H238.182C251.109 56.709 260.115 53.2589 265.737 48.5586C271.263 43.9391 274.091 37.6678 274.091 30.5234C274.091 24.1901 271.08 18.9247 264.852 14.9023C258.372 10.7186 248.443 8 235.742 8H50.3486Z" fill="url(#paint3_linear_205_31)"/>
<path d="M165.682 83.9076V79.2276C165.682 78.9796 165.77 78.7656 165.946 78.5856C166.126 78.4056 166.338 78.3156 166.582 78.3156C166.826 78.3156 167.036 78.3996 167.212 78.5676C167.392 78.7356 167.482 78.9336 167.482 79.1616V79.5636L167.296 79.3236H167.524C167.76 78.9796 168.072 78.7076 168.46 78.5076C168.852 78.3036 169.282 78.2016 169.75 78.2016C170.45 78.2016 171.002 78.4076 171.406 78.8196C171.814 79.2316 172.018 79.7816 172.018 80.4696V83.9076C172.018 84.1716 171.926 84.3976 171.742 84.5856C171.558 84.7696 171.338 84.8616 171.082 84.8616C170.822 84.8616 170.598 84.7696 170.41 84.5856C170.226 84.3976 170.134 84.1716 170.134 83.9076V80.9616C170.134 80.5656 170.038 80.2616 169.846 80.0496C169.654 79.8376 169.36 79.7316 168.964 79.7316C168.556 79.7316 168.22 79.8656 167.956 80.1336C167.696 80.4016 167.566 80.7356 167.566 81.1356V83.9076C167.566 84.1716 167.472 84.3976 167.284 84.5856C167.1 84.7696 166.88 84.8616 166.624 84.8616C166.368 84.8616 166.146 84.7696 165.958 84.5856C165.774 84.3976 165.682 84.1716 165.682 83.9076Z" fill="#A9A9A9"/>
<path d="M163.58 84.8616C163.32 84.8616 163.096 84.7676 162.908 84.5796C162.724 84.3916 162.632 84.1656 162.632 83.9016V79.2696C162.632 79.0096 162.724 78.7856 162.908 78.5976C163.096 78.4096 163.32 78.3156 163.58 78.3156C163.836 78.3156 164.056 78.4096 164.24 78.5976C164.424 78.7856 164.516 79.0096 164.516 79.2696V83.9016C164.516 84.1656 164.424 84.3916 164.24 84.5796C164.056 84.7676 163.836 84.8616 163.58 84.8616ZM163.586 77.3916C163.286 77.3916 163.028 77.2876 162.812 77.0796C162.6 76.8716 162.494 76.6176 162.494 76.3176C162.494 76.0176 162.6 75.7676 162.812 75.5676C163.028 75.3676 163.286 75.2676 163.586 75.2676C163.894 75.2676 164.148 75.3676 164.348 75.5676C164.552 75.7676 164.654 76.0196 164.654 76.3236C164.654 76.6196 164.552 76.8716 164.348 77.0796C164.148 77.2876 163.894 77.3916 163.586 77.3916Z" fill="#A9A9A9"/>
<path d="M158.842 84.9696C158.378 84.9696 157.966 84.8776 157.606 84.6936C157.246 84.5056 156.962 84.2716 156.754 83.9916H156.304L156.724 83.5416V84.0756C156.724 84.2836 156.64 84.4736 156.472 84.6456C156.304 84.8176 156.086 84.9036 155.818 84.9036C155.558 84.9036 155.338 84.8096 155.158 84.6216C154.982 84.4336 154.894 84.2056 154.894 83.9376V76.8156C154.894 76.5556 154.986 76.3336 155.17 76.1496C155.358 75.9616 155.58 75.8676 155.836 75.8676C156.092 75.8676 156.312 75.9616 156.496 76.1496C156.684 76.3336 156.778 76.5556 156.778 76.8156V79.2276H156.82C157.016 78.9436 157.298 78.7016 157.666 78.5016C158.034 78.3016 158.454 78.2016 158.926 78.2016C159.754 78.2016 160.456 78.5096 161.032 79.1256C161.612 79.7376 161.902 80.5556 161.902 81.5796C161.902 82.5836 161.608 83.3996 161.02 84.0276C160.436 84.6556 159.71 84.9696 158.842 84.9696ZM158.362 83.4096C158.862 83.4096 159.262 83.2416 159.562 82.9056C159.862 82.5656 160.012 82.1256 160.012 81.5856C160.012 81.0496 159.86 80.6136 159.556 80.2776C159.256 79.9376 158.858 79.7676 158.362 79.7676C157.882 79.7676 157.488 79.9356 157.18 80.2716C156.872 80.6076 156.718 81.0496 156.718 81.5976C156.718 82.1376 156.868 82.5756 157.168 82.9116C157.472 83.2436 157.87 83.4096 158.362 83.4096Z" fill="#A9A9A9"/>
<path d="M151.037 84.9696C149.957 84.9696 149.095 84.6576 148.451 84.0336C147.811 83.4096 147.491 82.5956 147.491 81.5916C147.491 80.6516 147.803 79.8516 148.427 79.1916C149.051 78.5316 149.893 78.2016 150.953 78.2016C151.889 78.2016 152.659 78.4916 153.263 79.0716C153.871 79.6516 154.175 80.3416 154.175 81.1416V81.1896C154.175 81.4456 154.091 81.6516 153.923 81.8076C153.759 81.9596 153.527 82.0356 153.227 82.0356H148.445V81.0336H152.459V81.0276C152.431 80.6316 152.285 80.3036 152.021 80.0436C151.757 79.7836 151.399 79.6536 150.947 79.6536C150.471 79.6536 150.079 79.8216 149.771 80.1576C149.467 80.4896 149.315 80.9576 149.315 81.5616C149.315 82.2016 149.485 82.6916 149.825 83.0316C150.165 83.3716 150.617 83.5416 151.181 83.5416C151.397 83.5416 151.581 83.5216 151.733 83.4816C151.889 83.4416 152.029 83.3876 152.153 83.3196C152.281 83.2476 152.409 83.1576 152.537 83.0496C152.685 82.9296 152.855 82.8656 153.047 82.8576C153.243 82.8456 153.413 82.9036 153.557 83.0316C153.705 83.1516 153.783 83.3096 153.791 83.5056C153.799 83.7016 153.727 83.8836 153.575 84.0516C153.403 84.2436 153.197 84.4056 152.957 84.5376C152.721 84.6696 152.451 84.7736 152.147 84.8496C151.847 84.9296 151.477 84.9696 151.037 84.9696Z" fill="#A9A9A9"/>
<path d="M145.856 84.8616C145.6 84.8616 145.378 84.7696 145.19 84.5856C145.006 84.3976 144.914 84.1736 144.914 83.9136V76.8156C144.914 76.5556 145.006 76.3336 145.19 76.1496C145.378 75.9616 145.6 75.8676 145.856 75.8676C146.112 75.8676 146.332 75.9616 146.516 76.1496C146.704 76.3336 146.798 76.5556 146.798 76.8156V83.9136C146.798 84.1736 146.704 84.3976 146.516 84.5856C146.332 84.7696 146.112 84.8616 145.856 84.8616Z" fill="#A9A9A9"/>
<path d="M141.491 84.9756C140.431 84.9756 139.579 84.6576 138.935 84.0216C138.291 83.3816 137.969 82.5736 137.969 81.5976C137.969 80.6136 138.288 79.8016 138.928 79.1616C139.568 78.5216 140.439 78.2016 141.539 78.2016C141.939 78.2016 142.285 78.2456 142.577 78.3336C142.873 78.4216 143.133 78.5416 143.357 78.6936C143.585 78.8416 143.761 79.0036 143.885 79.1796C144.013 79.3676 144.061 79.5676 144.029 79.7796C144.001 79.9876 143.905 80.1516 143.741 80.2716C143.577 80.3956 143.401 80.4516 143.213 80.4396C143.025 80.4276 142.846 80.3596 142.678 80.2356C142.583 80.1516 142.485 80.0776 142.385 80.0136C142.289 79.9496 142.171 79.8976 142.031 79.8576C141.895 79.8136 141.727 79.7916 141.527 79.7916C141.038 79.7916 140.639 79.9596 140.327 80.2956C140.015 80.6276 139.859 81.0596 139.859 81.5916C139.859 82.1316 140.021 82.5636 140.345 82.8876C140.669 83.2116 141.061 83.3736 141.521 83.3736C141.729 83.3736 141.907 83.3516 142.055 83.3076C142.202 83.2636 142.321 83.2116 142.409 83.1516C142.501 83.0916 142.595 83.0176 142.691 82.9296C142.859 82.7896 143.033 82.7036 143.213 82.6716C143.393 82.6396 143.571 82.6736 143.747 82.7736C143.947 82.8856 144.077 83.0496 144.137 83.2656C144.197 83.4816 144.169 83.6936 144.053 83.9016C143.957 84.0656 143.79 84.2316 143.555 84.3996C143.323 84.5636 143.035 84.6996 142.691 84.8076C142.351 84.9196 141.951 84.9756 141.491 84.9756Z" fill="#A9A9A9"/>
<path d="M133.771 87.4836C133.447 87.4836 133.203 87.3536 133.039 87.0936C132.875 86.8376 132.869 86.5536 133.021 86.2416L134.143 83.9196L134.149 84.7716L131.779 79.5996C131.615 79.2556 131.625 78.9576 131.809 78.7056C131.993 78.4496 132.233 78.3216 132.529 78.3216C132.721 78.3216 132.893 78.3776 133.045 78.4896C133.201 78.6016 133.313 78.7396 133.381 78.9036L134.551 81.7836L134.851 82.5936H134.893L135.211 81.7596L136.405 78.8856C136.469 78.7296 136.575 78.5976 136.723 78.4896C136.875 78.3776 137.039 78.3216 137.215 78.3216C137.531 78.3216 137.773 78.4496 137.941 78.7056C138.109 78.9576 138.119 79.2416 137.971 79.5576L134.623 86.9016C134.539 87.0816 134.421 87.2236 134.269 87.3276C134.121 87.4316 133.955 87.4836 133.771 87.4836Z" fill="#A9A9A9"/>
<path d="M128.745 84.9756C127.685 84.9756 126.833 84.6576 126.189 84.0216C125.545 83.3816 125.223 82.5736 125.223 81.5976C125.223 80.6136 125.543 79.8016 126.183 79.1616C126.823 78.5216 127.693 78.2016 128.793 78.2016C129.193 78.2016 129.539 78.2456 129.831 78.3336C130.127 78.4216 130.387 78.5416 130.611 78.6936C130.839 78.8416 131.015 79.0036 131.139 79.1796C131.267 79.3676 131.315 79.5676 131.283 79.7796C131.255 79.9876 131.159 80.1516 130.995 80.2716C130.831 80.3956 130.655 80.4516 130.467 80.4396C130.279 80.4276 130.101 80.3596 129.933 80.2356C129.837 80.1516 129.739 80.0776 129.639 80.0136C129.543 79.9496 129.425 79.8976 129.285 79.8576C129.149 79.8136 128.981 79.7916 128.781 79.7916C128.293 79.7916 127.893 79.9596 127.581 80.2956C127.269 80.6276 127.113 81.0596 127.113 81.5916C127.113 82.1316 127.275 82.5636 127.599 82.8876C127.923 83.2116 128.315 83.3736 128.775 83.3736C128.983 83.3736 129.161 83.3516 129.309 83.3076C129.457 83.2636 129.575 83.2116 129.663 83.1516C129.755 83.0916 129.849 83.0176 129.945 82.9296C130.113 82.7896 130.287 82.7036 130.467 82.6716C130.647 82.6396 130.825 82.6736 131.001 82.7736C131.201 82.8856 131.331 83.0496 131.391 83.2656C131.451 83.4816 131.423 83.6936 131.307 83.9016C131.211 84.0656 131.045 84.2316 130.809 84.3996C130.577 84.5636 130.289 84.6996 129.945 84.8076C129.605 84.9196 129.205 84.9756 128.745 84.9756Z" fill="#A9A9A9"/>
<path d="M121.811 84.9696C120.731 84.9696 119.869 84.6576 119.225 84.0336C118.585 83.4096 118.265 82.5956 118.265 81.5916C118.265 80.6516 118.577 79.8516 119.201 79.1916C119.825 78.5316 120.667 78.2016 121.727 78.2016C122.663 78.2016 123.433 78.4916 124.037 79.0716C124.645 79.6516 124.949 80.3416 124.949 81.1416V81.1896C124.949 81.4456 124.865 81.6516 124.697 81.8076C124.533 81.9596 124.301 82.0356 124.001 82.0356H119.219V81.0336H123.233V81.0276C123.205 80.6316 123.059 80.3036 122.795 80.0436C122.531 79.7836 122.173 79.6536 121.721 79.6536C121.245 79.6536 120.853 79.8216 120.545 80.1576C120.241 80.4896 120.089 80.9576 120.089 81.5616C120.089 82.2016 120.259 82.6916 120.599 83.0316C120.939 83.3716 121.391 83.5416 121.955 83.5416C122.171 83.5416 122.355 83.5216 122.507 83.4816C122.663 83.4416 122.803 83.3876 122.927 83.3196C123.055 83.2476 123.183 83.1576 123.311 83.0496C123.459 82.9296 123.629 82.8656 123.821 82.8576C124.017 82.8456 124.187 82.9036 124.331 83.0316C124.479 83.1516 124.557 83.3096 124.565 83.5056C124.573 83.7016 124.501 83.8836 124.349 84.0516C124.177 84.2436 123.971 84.4056 123.731 84.5376C123.495 84.6696 123.225 84.7736 122.921 84.8496C122.621 84.9296 122.251 84.9696 121.811 84.9696Z" fill="#A9A9A9"/>
<path d="M114.942 84.8616C114.686 84.8616 114.464 84.7696 114.276 84.5856C114.092 84.3976 114 84.1716 114 83.9076V79.2216C114 78.9736 114.088 78.7616 114.264 78.5856C114.44 78.4056 114.65 78.3156 114.894 78.3156C115.138 78.3156 115.348 78.4016 115.524 78.5736C115.7 78.7456 115.788 78.9496 115.788 79.1856V79.5876L115.62 79.3896H115.836C115.964 79.0336 116.184 78.7476 116.496 78.5316C116.812 78.3116 117.156 78.2016 117.528 78.2016C117.656 78.2016 117.786 78.2176 117.918 78.2496C118.054 78.2816 118.174 78.3376 118.278 78.4176C118.382 78.4936 118.464 78.5996 118.524 78.7356C118.584 78.8716 118.602 79.0236 118.578 79.1916C118.55 79.3596 118.488 79.4976 118.392 79.6056C118.296 79.7096 118.188 79.7836 118.068 79.8276C117.952 79.8676 117.828 79.8856 117.696 79.8816C117.568 79.8736 117.45 79.8696 117.342 79.8696C116.922 79.8696 116.574 80.0156 116.298 80.3076C116.022 80.5996 115.884 81.0396 115.884 81.6276V83.9076C115.884 84.1716 115.79 84.3976 115.602 84.5856C115.418 84.7696 115.198 84.8616 114.942 84.8616Z" fill="#A9A9A9"/>
<defs>
<linearGradient id="paint0_linear_205_31" x1="282.091" y1="166.657" x2="4.02206" y2="169.114" gradientUnits="userSpaceOnUse">
<stop stop-color="#CDCDCD"/>
<stop offset="0.301058" stop-color="#DEDEDE"/>
<stop offset="0.730732" stop-color="#E6E6E6"/>
<stop offset="0.905286" stop-color="#F0F0F0"/>
<stop offset="1" stop-color="#D9D9D9"/>
</linearGradient>
<linearGradient id="paint1_linear_205_31" x1="10.0444" y1="449.171" x2="316.148" y2="423.698" gradientUnits="userSpaceOnUse">
<stop stop-color="#DFDFDF"/>
<stop offset="0.235519" stop-color="#A8A4A4"/>
<stop offset="0.788426" stop-color="#999999"/>
<stop offset="0.87016" stop-color="#CECECE"/>
<stop offset="1" stop-color="#CECECE"/>
</linearGradient>
<linearGradient id="paint2_linear_205_31" x1="143.046" y1="-18.8663" x2="143.046" y2="333.317" gradientUnits="userSpaceOnUse">
<stop stop-color="#BEBEBE"/>
<stop offset="1" stop-color="#ACACAC"/>
</linearGradient>
<linearGradient id="paint3_linear_205_31" x1="143.045" y1="64.709" x2="143.045" y2="-3.66278" gradientUnits="userSpaceOnUse">
<stop stop-color="#CECECE"/>
<stop offset="1" stop-color="#E9E9E9"/>
</linearGradient>
</defs>
</svg>
