<svg width="286" height="334" viewBox="0 0 286 334" fill="none" xmlns="http://www.w3.org/2000/svg">
<path d="M235.743 0C263.142 0.000104284 282.091 11.6431 282.091 30.5234C282.091 49.4037 266.801 64.7088 238.183 64.709H47.9092C19.2905 64.7089 4.00003 49.4038 4 30.5234C4 11.6431 22.9495 6.21384e-05 50.3486 0H235.743Z" fill="url(#paint0_linear_214_2)"/>
<path fill-rule="evenodd" clip-rule="evenodd" d="M235.743 0C263.142 0.000104284 282.091 11.6431 282.091 30.5234L282.08 31.4053C281.61 49.8781 266.355 64.709 238.183 64.709H47.9092L46.5771 64.6982C19.2567 64.2375 4.47298 49.5847 4.01074 31.4053L4 30.5234C4.00008 11.9382 22.3619 0.366002 49.0703 0.00878906L50.3486 0H235.743ZM50.3486 8C37.6477 8.00005 27.7183 10.7185 21.2393 14.9023C15.0106 18.9246 12 24.1902 12 30.5234C12 37.6677 14.8282 43.9391 20.3535 48.5586C25.9758 53.2589 34.9815 56.7089 47.9092 56.709H238.182C251.109 56.709 260.115 53.2589 265.737 48.5586C271.263 43.9391 274.091 37.6678 274.091 30.5234C274.091 24.1901 271.08 18.9247 264.852 14.9023C258.372 10.7186 248.443 8 235.742 8H50.3486Z" fill="url(#paint1_linear_214_2)"/>
<path fill-rule="evenodd" clip-rule="evenodd" d="M31.9629 26.8338C39.6377 14.7018 59.0664 6.77852 79.1006 16.8817L80.0547 17.3758L80.0566 17.3778C90.5782 22.9855 97.686 30.6073 102.193 37.6551C106.388 44.2144 108.707 50.8926 108.973 55.4745L108.992 55.911V55.9237C109.012 56.6327 108.987 57.3198 108.92 57.9842C108.912 58.4041 108.887 58.8215 108.84 59.2342L108.838 59.245C107.669 69.3324 99.7211 73.1868 94.3887 74.244C94.5607 76.2664 94.3849 78.4763 93.4902 80.6542C92.5064 83.0484 90.908 84.7882 89.2041 86.0116C86.3082 88.0908 82.5721 88.9547 80.4424 89.4794H80.4404C74.5548 90.928 59.3964 91.7853 44.8945 78.4823L44.2041 77.8378C33.3194 67.4945 27.1351 56.1698 27.001 44.7948L27 44.2967C27.0282 39.9848 28.0741 34.7695 29.9883 30.661C30.5337 29.3329 31.191 28.0538 31.9629 26.8338Z" fill="white"/>
<path d="M75.5584 26.4494C58.7905 17.519 43.5271 23.8828 38.0257 32.5804C36.2248 35.4242 34.951 40.5962 35.0004 44.6983C35.0992 53.1409 39.7277 62.548 49.7148 72.0383C62.0025 83.7127 74.5427 82.6927 78.5287 81.7115C83.547 80.4754 86.9127 79.4221 86.3966 74.6991C86.3307 74.0783 85.8036 72.953 85.0075 72.4596C82.4544 70.8964 77.1232 70.0815 74.614 66.3175C70.9684 60.8351 75.5035 60.5579 79.8464 62.9028C84.4969 65.414 87.1542 66.9827 91.8211 66.5504C95.2417 66.2344 100.216 64.1501 100.891 58.3239C101.495 53.0522 93.8745 36.2058 75.5584 26.4494ZM82.405 55.0977C81.1202 57.0711 77.9467 56.3949 75.8659 54.5323C73.785 52.6697 73.5159 49.5654 74.8666 48.3458C76.2392 47.1097 78.8197 47.3924 80.9006 49.2549C82.976 51.1231 83.4097 53.5455 82.405 55.0977Z" fill="#AC5810"/>
<path d="M76.2941 24.4372C59.5263 15.5067 44.2244 22.4138 38.7229 31.1114C33.216 39.8145 35.6099 55.9292 50.4451 70.0261C62.7327 81.7005 75.2729 80.6805 79.259 79.6993C84.2772 78.4631 87.8186 76.0517 85.6114 72.9751C84.0906 70.852 78.6385 69.25 75.3498 64.3053C71.7041 58.8229 76.2392 58.5457 80.5822 60.8905C85.2326 63.4017 87.89 64.9705 92.5568 64.5381C95.9774 64.2221 101.149 61.5502 100.996 56.1509C100.836 50.8459 94.6103 34.1991 76.2941 24.4372ZM84.0137 54.9425C82.4489 56.6498 79.1162 56.1842 76.5686 53.9114C74.0266 51.6331 73.2304 48.4068 74.7952 46.705C76.36 44.9976 79.6927 45.4633 82.2403 47.7361C84.7878 50.0089 85.5785 53.2407 84.0137 54.9425Z" fill="#F2A259"/>
<path d="M59.2243 62.67C59.8557 61.0402 64.3469 59.2552 68.4757 62.221C69.6342 63.0525 71.0837 65.17 70.9354 67.8309C70.4523 76.5229 56.3253 70.1702 59.2243 62.67Z" fill="#EEEEEE"/>
<path d="M46.1076 47.9301C47.5516 45.6018 51.06 45.3358 54.1292 47.348C56.8634 49.1385 59.1474 53.5455 55.7763 56.4281C53.9699 57.9747 50.8459 57.0157 48.9187 55.5245C46.5798 53.7229 44.5538 50.4357 46.1076 47.9301Z" fill="#2686C6"/>
<path d="M64.7422 27.6135C65.1869 25.7676 68.289 25.4516 70.4852 26.2776C74.2791 27.7078 75.9976 31.4995 74.5976 33.6115C72.5496 36.6992 68.0859 35.6404 66.3948 33.872C63.5233 30.8786 64.3689 29.1601 64.7422 27.6135Z" fill="#FFEE58"/>
<path d="M86.726 36.6493C89.7677 38.0462 90.163 40.258 89.581 41.8711C89.2186 42.869 88.4774 44.2382 86.9621 44.3601C84.398 44.5708 84.0411 42.431 82.2128 41.8434C80.6755 41.3501 80.0496 39.2269 80.6535 37.8023C81.2136 36.4885 82.8497 34.8643 86.726 36.6493Z" fill="#7CB342"/>
<path d="M69.8483 69.4883C69.0906 70.1813 66.4607 71.035 63.1225 68.9285C61.9915 68.2134 60.9099 67.1768 60.3004 65.6246C59.8228 64.4051 59.9271 63.2299 60.1412 62.7088C60.7561 61.2065 61.695 60.9293 61.695 60.9293C60.7506 60.8628 58.9662 62.1267 58.6698 63.7842C58.5764 64.3053 57.9121 67.5648 62.1891 70.5194C65.8732 73.0694 71.3198 72.831 70.9629 67.6978C70.7982 68.3298 70.3315 69.0504 69.8483 69.4883Z" fill="#B0B0B0"/>
<path d="M57.3795 52.1708C57.2752 54.1498 54.9802 55.1919 53.7009 55.1975C50.0827 55.203 46.8323 52.908 46.6072 48.8226C46.5688 48.0908 46.9257 47.032 46.9257 47.032C46.448 47.2372 45.7727 48.2793 45.6299 48.8669C44.7844 52.3925 48.3038 56.5002 52.0098 57.3317C53.8876 57.753 56.254 57.1044 57.116 55.4081C57.7309 54.1997 57.6101 53.163 57.3795 52.1708Z" fill="#01579B"/>
<path d="M70.0405 33.8776C67.5808 33.5949 66.2191 31.9706 65.8623 31.5992C64.885 30.5682 64.281 29.5648 64.6324 28.0792C64.7422 27.6024 65.0112 26.9927 65.3407 26.649C64.9399 26.782 64.292 27.6523 64.0888 28.1235C63.8802 28.5947 63.1225 30.3631 64.7477 32.5416C65.7524 33.8942 67.5039 35.4186 70.0954 35.7845C71.9347 36.045 73.2524 35.3798 74.3505 34.2989C75.0972 33.5616 75.4266 31.8986 74.9819 31.0393C75.0533 31.6658 73.9167 34.3266 70.0405 33.8776Z" fill="#DF7F14"/>
<path d="M90.2728 40.6017C90.0477 39.7647 89.4053 38.8943 89.3394 38.85C89.6195 39.3932 90.174 41.023 89.01 42.6084C88.4225 43.4067 86.6546 44.3878 84.5682 42.6805C83.9533 42.176 83.4592 41.6771 82.3501 41.2669C79.5335 40.2192 80.7633 37.3256 81.7406 36.4275C80.972 36.8322 80.2747 37.5584 79.9837 38.6671C79.5774 40.2137 80.5822 41.8323 82.1085 42.6084C83.8435 43.4898 84.4035 45.1916 86.7809 45.1916C86.9017 45.1916 87.028 45.1861 87.1652 45.175C88.7684 45.0364 89.4438 44.41 89.9324 43.645C90.5309 42.6916 90.5473 41.6106 90.2728 40.6017Z" fill="#558B2F"/>
<path d="M47.2551 30.036C48.5069 28.7887 50.6866 27.4694 53.8766 29.149C55.7983 30.1579 58.0329 31.3442 57.0226 35.4464C56.3967 37.9908 52.7291 39.3378 49.6654 36.5051C48.452 35.3854 43.84 33.4396 47.2551 30.036Z" fill="#F44336"/>
<path d="M57.7529 34.8976C57.7913 33.9275 57.2971 32.7467 57.1269 32.3476C57.1544 32.9296 57.654 34.3986 55.3645 36.3444C54.5684 37.0207 53.1244 37.5362 51.5486 36.9098C50.7415 36.5883 49.5831 35.2412 48.754 34.9031C45.6739 33.6503 47.0025 30.3187 47.4363 29.8641C46.739 30.3575 46.146 31.1447 45.9264 32.2922C45.6409 33.7944 45.9045 35.2135 47.9469 36.8377C53.7448 41.4554 55.5237 38.6726 56.1551 37.9631C56.9512 37.0983 57.7089 35.9674 57.7529 34.8976Z" fill="#C62828"/>
<path d="M69.173 26.4716C68.3659 26.0891 66.0599 26.2 65.6152 28.1402C65.3462 29.3043 66.1917 30.485 66.9878 30.3464C67.8937 30.1912 67.4106 28.7666 67.9541 28.3619C68.7832 27.7521 70.304 27.0093 69.173 26.4716Z" fill="#A9A9A9"/>
<path d="M52.1636 29.2987C51.3675 28.7666 48.8254 28.761 48.0622 30.7289C47.601 31.9097 48.3203 33.2789 49.1823 33.2567C50.1651 33.2345 49.6929 32.0649 50.5109 31.3221C51.5432 30.3852 53.2781 30.0415 52.1636 29.2987Z" fill="#A9A9A9"/>
<path d="M51.7847 47.0598C51.0325 46.5775 48.8034 46.389 47.881 48.1518C47.2057 49.449 48.1336 50.8792 48.9407 50.8404C49.8576 50.796 49.5501 49.3215 50.1376 48.9889C51.0325 48.4844 52.8389 47.7361 51.7847 47.0598Z" fill="#A9A9A9"/>
<path d="M64.594 61.8218C63.7869 61.4393 61.4809 61.5502 61.0361 63.4904C60.7671 64.6545 61.6126 65.8353 62.4088 65.6967C63.3147 65.5415 62.8315 64.1168 63.3751 63.7121C64.1986 63.1024 65.7195 62.3595 64.594 61.8218Z" fill="#A9A9A9"/>
<path d="M85.282 36.8322C84.5573 36.3111 82.2677 36.0062 81.4881 37.8356C81.0214 38.9331 81.6418 40.2469 82.4489 40.2525C83.3658 40.258 83.1407 38.7724 83.7502 38.473C84.6671 38.024 86.2977 37.5639 85.282 36.8322Z" fill="#A9A9A9"/>
<path fill-rule="evenodd" clip-rule="evenodd" d="M184.779 38.7521C184.538 40.2062 184.417 40.9333 184.696 41.5071C184.795 41.7085 184.926 41.8921 185.085 42.0501C185.537 42.4999 186.264 42.6207 187.719 42.8623L194.282 43.9525C196.912 44.3893 198.226 44.6077 198.67 45.5686C199.114 46.5295 198.428 47.6722 197.055 49.9577L195.34 52.8147C194.586 54.0711 193.69 55.2526 192.687 56.3667C192.028 57.1054 191.699 57.4748 191.573 57.7535C191.42 58.0925 191.392 58.2255 191.396 58.5976C191.399 58.9033 191.56 59.4 191.882 60.3933C191.994 60.7393 192.094 61.09 192.181 61.445C192.33 62.0371 192.469 62.6331 192.595 63.2293L192.942 65.0243L192.97 65.1777L192.987 65.3327L193.73 71.3788C194.03 73.812 194.179 75.0285 193.456 75.7219C192.732 76.4152 191.523 76.2143 189.105 75.8126L147.2 68.8517C147.111 68.837 147.051 68.7531 147.066 68.6644C147.084 68.5548 146.989 68.4596 146.879 68.4755C145.002 68.7476 143.1 68.7044 141.214 68.391C138.787 67.9878 136.47 67.1722 134.398 65.8317L133.525 65.2244L133.492 65.1973L133.459 65.1732C133.387 65.1182 133.316 65.0627 133.246 65.0065C132.664 64.5402 131.771 64.723 131.488 65.4135C131.303 65.8672 130.828 66.1322 130.344 66.0519L100.712 61.1296C99.1993 60.8783 98.443 60.7527 97.9745 60.231C97.506 59.7094 97.462 58.9439 97.3741 57.4131L95.6482 27.3692C95.5158 25.0641 95.4496 23.9115 96.1651 23.2689C96.8805 22.6263 98.0194 22.8155 100.297 23.1939L143.501 30.3706C144.639 30.5596 145.306 31.7573 144.868 32.8243C144.388 33.9927 145.236 35.2856 146.484 35.4801C146.548 35.4901 146.612 35.5003 146.675 35.5109C148.562 35.8243 150.38 36.3906 152.07 37.2561C152.167 37.3055 152.284 37.2473 152.302 37.1403C152.317 37.0537 152.398 36.9952 152.485 37.0096L166.37 39.3159C166.386 39.3186 166.402 39.3191 166.418 39.3179C166.505 39.3111 166.576 39.248 166.591 39.162L167.077 36.2344C167.384 34.3837 167.538 33.4584 168.206 32.9765C168.211 32.9735 168.215 32.9705 168.219 32.9676C168.891 32.4909 169.816 32.6446 171.667 32.952L181.84 34.6419C183.294 34.8834 184.021 35.0042 184.474 35.4541C184.633 35.612 184.764 35.7956 184.862 35.9971C185.142 36.5708 185.021 37.2979 184.779 38.7521Z" fill="white"/>
<path fill-rule="evenodd" clip-rule="evenodd" d="M145.65 41.6944C147.603 42.019 149.259 42.6882 150.615 43.7012C151.996 44.7182 152.98 46.062 153.566 47.7341C154.181 49.3862 154.299 51.3508 153.921 53.6255C153.539 55.9253 152.776 57.7697 151.631 59.1551C150.515 60.5199 149.14 61.4472 147.508 61.9386C145.901 62.4339 144.146 62.5247 142.242 62.2086C140.289 61.8841 138.633 61.2146 137.277 60.2018C135.924 59.1639 134.953 57.8201 134.363 56.1718C133.777 54.4989 133.672 52.5254 134.05 50.2502C134.428 47.9749 135.163 46.1531 136.255 44.7841C137.371 43.4194 138.732 42.4896 140.339 41.9941C141.974 41.478 143.745 41.3781 145.65 41.6944ZM144.809 45.8235C143.894 45.6718 143.066 45.7625 142.325 46.0965C141.587 46.406 140.969 46.9908 140.47 47.8484C139.977 48.6809 139.621 49.7521 139.403 51.0619C139.054 53.1635 139.21 54.8289 139.87 56.0567C140.53 57.2845 141.602 58.0226 143.086 58.2692C144.05 58.4294 144.892 58.341 145.609 58.0027C146.35 57.6684 146.955 57.0811 147.424 56.2443C147.922 55.387 148.278 54.3161 148.492 53.0307C148.717 51.6705 148.724 50.4892 148.509 49.4877C148.323 48.4657 147.925 47.6498 147.315 47.0402C146.709 46.4058 145.872 46.0001 144.809 45.8235Z" fill="black"/>
<path d="M108.217 51.3323L108.628 51.4005L116.239 32.1957L123.028 33.3236L124.022 53.9576L124.468 54.0319L131.412 34.7162L136.94 35.6345L127.27 59.1879L119.813 57.9492L118.968 37.3367L118.633 37.281L111.169 56.5134L103.528 55.2441L102.067 29.8417L107.891 30.8091L108.217 51.3323Z" fill="black"/>
<path d="M169.684 45.8015C169.956 45.8466 170.259 45.9326 170.592 46.0641L169.426 51.7027C169.085 51.4685 168.697 51.2792 168.265 51.1313C167.832 50.9833 167.443 50.8801 167.097 50.8225C166.132 50.6623 165.265 50.7464 164.498 51.0765C163.732 51.4067 163.057 51.9557 162.472 52.7223C161.916 53.4684 161.467 54.4229 161.122 55.5848L159.63 64.5633L154.251 63.6697L157.486 44.1941L161.899 44.9272L160.833 51.5721L161.539 51.6894C162.012 50.0656 162.571 48.774 163.213 47.8134C163.88 46.8573 164.686 46.2024 165.633 45.8515C166.581 45.5007 167.698 45.4315 168.984 45.6449C169.206 45.6819 169.44 45.7357 169.684 45.8015Z" fill="black"/>
<path d="M175.707 55.11C176.56 54.718 177.382 54.2826 178.173 53.8041C178.993 53.305 179.743 52.7686 180.423 52.1954C181.127 51.6267 181.759 51.0343 182.319 50.4163C182.904 49.8023 183.412 49.1866 183.845 48.5726L189.967 49.5896C189.44 50.4676 188.786 51.3372 188.007 52.1988C187.258 53.0394 186.396 53.7983 185.421 54.4744C184.473 55.1299 183.408 55.6528 182.226 56.0408C181.043 56.4287 179.779 56.613 178.436 56.5933L178.331 57.2242C180.037 57.2028 181.406 57.4569 182.436 57.9837C183.466 58.5107 184.263 59.2153 184.828 60.0966C185.422 60.9576 185.849 61.9178 186.105 62.9768C186.365 64.0101 186.584 65.05 186.766 66.0958L187.14 69.1329L181.316 68.1656L181.135 66.2679C180.99 64.9985 180.783 63.8706 180.515 62.8857C180.246 61.901 179.806 61.1047 179.196 60.4951C178.615 59.865 177.732 59.4516 176.545 59.2543L175.06 59.0076L173.747 66.9083L168.479 66.0332L172.885 39.5082L178.153 40.3833L175.707 55.11Z" fill="black"/>
<path d="M186.26 43.2641C185.402 40.0633 187.302 36.7733 190.503 35.9157L233.003 24.5276C236.204 23.67 239.494 25.5695 240.352 28.7703L251.74 71.271C252.598 74.4718 250.698 77.7618 247.497 78.6195L204.997 90.0075C201.796 90.8652 198.506 88.9657 197.648 85.7649L186.26 43.2641Z" fill="white"/>
<path d="M232.237 29.9094L192.892 40.452C191.227 40.898 190.222 42.5959 190.659 44.2251L200.977 82.7334C201.413 84.3626 203.133 85.3306 204.797 84.8846L244.143 74.342C245.807 73.896 246.812 72.1981 246.375 70.5689L236.057 32.0606C235.621 30.4314 233.902 29.4634 232.237 29.9094Z" fill="#CCA633"/>
<path d="M229.853 30.548L192.702 40.5027C191.151 40.9183 190.202 42.5219 190.609 44.04L200.322 80.2896C200.729 81.8077 202.315 82.7321 203.904 82.3063L241.017 72.3618C242.568 71.9462 243.527 70.3797 243.11 68.8245L233.397 32.5749C233.028 31.0467 231.49 30.1492 229.929 30.5278C229.891 30.5379 229.891 30.5379 229.853 30.548Z" fill="#F4D136"/>
<path d="M204.254 40.9394C204.026 40.0878 203.351 39.9908 199.9 41.0345C197.017 41.9261 195.669 42.6446 195.076 43.9145C194.484 45.1844 194.822 47.3558 195.459 49.8838C195.936 51.6611 196.382 53.3273 197.328 53.0739C198.614 52.7292 197.83 49.8041 198.453 47.891C199.633 44.1223 204.552 42.0502 204.254 40.9394Z" fill="#CCA633"/>
<path d="M238.183 64.709H47.9092L46.5771 64.6982C19.2567 64.2375 4.47298 49.5847 4.01074 31.4053L4 30.5234H12C12 37.6677 14.8282 43.9391 20.3535 48.5586C25.9758 53.2589 34.9815 56.7089 47.9092 56.709H238.182C251.109 56.709 260.115 53.2589 265.737 48.5586C271.263 43.9391 274.091 37.6678 274.091 30.5234H282.091L282.08 31.4053C281.61 49.8781 266.355 64.709 238.183 64.709Z" fill="url(#paint2_linear_214_2)"/>
<path d="M266.544 267.522C265.024 290.694 264.263 302.28 259.267 311.065C254.868 318.8 248.227 325.02 240.221 328.903C231.127 333.314 219.516 333.314 196.295 333.314H89.7969C66.5757 333.314 54.9651 333.314 45.8711 328.903C37.8648 325.02 31.2232 318.8 26.8242 311.065C21.8279 302.28 21.0679 290.694 19.5479 267.522L4.29102 34.959C6.52051 51.7437 21.569 64.7089 47.9092 64.709H238.183C264.523 64.7088 279.57 51.7437 281.8 34.959L266.544 267.522Z" fill="url(#paint3_linear_214_2)"/>
<path d="M12.5898 60.1436L12.5937 60.2002C13.8484 78.6704 29.1972 93.0115 47.71 93.0117H238.07C256.515 93.0117 271.819 78.7499 273.118 60.3516L273.12 60.3281L273.122 60.3057L275.738 28.4746L282 29.2676L280 60.7676L280.001 60.7686C278.406 83.3561 260.714 101.012 238.07 101.012H47.71C25.0079 101.012 7.56681 83.4091 6 60.7676L4 29.2676C4 29.2676 4 37.2676 6.37195 42.7676C7.73422 45.9264 10.4493 49.7676 10.4493 49.7676L12.5898 60.1436Z" fill="url(#paint4_linear_214_2)" fill-opacity="0.15"/>
<path d="M165.682 83.9076V79.2276C165.682 78.9796 165.77 78.7656 165.946 78.5856C166.126 78.4056 166.338 78.3156 166.582 78.3156C166.826 78.3156 167.036 78.3996 167.212 78.5676C167.392 78.7356 167.482 78.9336 167.482 79.1616V79.5636L167.296 79.3236H167.524C167.76 78.9796 168.072 78.7076 168.46 78.5076C168.852 78.3036 169.282 78.2016 169.75 78.2016C170.45 78.2016 171.002 78.4076 171.406 78.8196C171.814 79.2316 172.018 79.7816 172.018 80.4696V83.9076C172.018 84.1716 171.926 84.3976 171.742 84.5856C171.558 84.7696 171.338 84.8616 171.082 84.8616C170.822 84.8616 170.598 84.7696 170.41 84.5856C170.226 84.3976 170.134 84.1716 170.134 83.9076V80.9616C170.134 80.5656 170.038 80.2616 169.846 80.0496C169.654 79.8376 169.36 79.7316 168.964 79.7316C168.556 79.7316 168.22 79.8656 167.956 80.1336C167.696 80.4016 167.566 80.7356 167.566 81.1356V83.9076C167.566 84.1716 167.472 84.3976 167.284 84.5856C167.1 84.7696 166.88 84.8616 166.624 84.8616C166.368 84.8616 166.146 84.7696 165.958 84.5856C165.774 84.3976 165.682 84.1716 165.682 83.9076Z" fill="#A9A9A9"/>
<path d="M163.58 84.8616C163.32 84.8616 163.096 84.7676 162.908 84.5796C162.724 84.3916 162.632 84.1656 162.632 83.9016V79.2696C162.632 79.0096 162.724 78.7856 162.908 78.5976C163.096 78.4096 163.32 78.3156 163.58 78.3156C163.836 78.3156 164.056 78.4096 164.24 78.5976C164.424 78.7856 164.516 79.0096 164.516 79.2696V83.9016C164.516 84.1656 164.424 84.3916 164.24 84.5796C164.056 84.7676 163.836 84.8616 163.58 84.8616ZM163.586 77.3916C163.286 77.3916 163.028 77.2876 162.812 77.0796C162.6 76.8716 162.494 76.6176 162.494 76.3176C162.494 76.0176 162.6 75.7676 162.812 75.5676C163.028 75.3676 163.286 75.2676 163.586 75.2676C163.894 75.2676 164.148 75.3676 164.348 75.5676C164.552 75.7676 164.654 76.0196 164.654 76.3236C164.654 76.6196 164.552 76.8716 164.348 77.0796C164.148 77.2876 163.894 77.3916 163.586 77.3916Z" fill="#A9A9A9"/>
<path d="M158.842 84.9696C158.378 84.9696 157.966 84.8776 157.606 84.6936C157.246 84.5056 156.962 84.2716 156.754 83.9916H156.304L156.724 83.5416V84.0756C156.724 84.2836 156.64 84.4736 156.472 84.6456C156.304 84.8176 156.086 84.9036 155.818 84.9036C155.558 84.9036 155.338 84.8096 155.158 84.6216C154.982 84.4336 154.894 84.2056 154.894 83.9376V76.8156C154.894 76.5556 154.986 76.3336 155.17 76.1496C155.358 75.9616 155.58 75.8676 155.836 75.8676C156.092 75.8676 156.312 75.9616 156.496 76.1496C156.684 76.3336 156.778 76.5556 156.778 76.8156V79.2276H156.82C157.016 78.9436 157.298 78.7016 157.666 78.5016C158.034 78.3016 158.454 78.2016 158.926 78.2016C159.754 78.2016 160.456 78.5096 161.032 79.1256C161.612 79.7376 161.902 80.5556 161.902 81.5796C161.902 82.5836 161.608 83.3996 161.02 84.0276C160.436 84.6556 159.71 84.9696 158.842 84.9696ZM158.362 83.4096C158.862 83.4096 159.262 83.2416 159.562 82.9056C159.862 82.5656 160.012 82.1256 160.012 81.5856C160.012 81.0496 159.86 80.6136 159.556 80.2776C159.256 79.9376 158.858 79.7676 158.362 79.7676C157.882 79.7676 157.488 79.9356 157.18 80.2716C156.872 80.6076 156.718 81.0496 156.718 81.5976C156.718 82.1376 156.868 82.5756 157.168 82.9116C157.472 83.2436 157.87 83.4096 158.362 83.4096Z" fill="#A9A9A9"/>
<path d="M151.037 84.9696C149.957 84.9696 149.095 84.6576 148.451 84.0336C147.811 83.4096 147.491 82.5956 147.491 81.5916C147.491 80.6516 147.803 79.8516 148.427 79.1916C149.051 78.5316 149.893 78.2016 150.953 78.2016C151.889 78.2016 152.659 78.4916 153.263 79.0716C153.871 79.6516 154.175 80.3416 154.175 81.1416V81.1896C154.175 81.4456 154.091 81.6516 153.923 81.8076C153.759 81.9596 153.527 82.0356 153.227 82.0356H148.445V81.0336H152.459V81.0276C152.431 80.6316 152.285 80.3036 152.021 80.0436C151.757 79.7836 151.399 79.6536 150.947 79.6536C150.471 79.6536 150.079 79.8216 149.771 80.1576C149.467 80.4896 149.315 80.9576 149.315 81.5616C149.315 82.2016 149.485 82.6916 149.825 83.0316C150.165 83.3716 150.617 83.5416 151.181 83.5416C151.397 83.5416 151.581 83.5216 151.733 83.4816C151.889 83.4416 152.029 83.3876 152.153 83.3196C152.281 83.2476 152.409 83.1576 152.537 83.0496C152.685 82.9296 152.855 82.8656 153.047 82.8576C153.243 82.8456 153.413 82.9036 153.557 83.0316C153.705 83.1516 153.783 83.3096 153.791 83.5056C153.799 83.7016 153.727 83.8836 153.575 84.0516C153.403 84.2436 153.197 84.4056 152.957 84.5376C152.721 84.6696 152.451 84.7736 152.147 84.8496C151.847 84.9296 151.477 84.9696 151.037 84.9696Z" fill="#A9A9A9"/>
<path d="M145.856 84.8616C145.6 84.8616 145.378 84.7696 145.19 84.5856C145.006 84.3976 144.914 84.1736 144.914 83.9136V76.8156C144.914 76.5556 145.006 76.3336 145.19 76.1496C145.378 75.9616 145.6 75.8676 145.856 75.8676C146.112 75.8676 146.332 75.9616 146.516 76.1496C146.704 76.3336 146.798 76.5556 146.798 76.8156V83.9136C146.798 84.1736 146.704 84.3976 146.516 84.5856C146.332 84.7696 146.112 84.8616 145.856 84.8616Z" fill="#A9A9A9"/>
<path d="M141.491 84.9756C140.431 84.9756 139.579 84.6576 138.935 84.0216C138.291 83.3816 137.969 82.5736 137.969 81.5976C137.969 80.6136 138.289 79.8016 138.929 79.1616C139.569 78.5216 140.439 78.2016 141.539 78.2016C141.939 78.2016 142.285 78.2456 142.577 78.3336C142.873 78.4216 143.133 78.5416 143.357 78.6936C143.585 78.8416 143.761 79.0036 143.885 79.1796C144.013 79.3676 144.061 79.5676 144.029 79.7796C144.001 79.9876 143.905 80.1516 143.741 80.2716C143.577 80.3956 143.401 80.4516 143.213 80.4396C143.025 80.4276 142.847 80.3596 142.679 80.2356C142.583 80.1516 142.485 80.0776 142.385 80.0136C142.289 79.9496 142.171 79.8976 142.031 79.8576C141.895 79.8136 141.727 79.7916 141.527 79.7916C141.039 79.7916 140.639 79.9596 140.327 80.2956C140.015 80.6276 139.859 81.0596 139.859 81.5916C139.859 82.1316 140.021 82.5636 140.345 82.8876C140.669 83.2116 141.061 83.3736 141.521 83.3736C141.729 83.3736 141.907 83.3516 142.055 83.3076C142.203 83.2636 142.321 83.2116 142.409 83.1516C142.501 83.0916 142.595 83.0176 142.691 82.9296C142.859 82.7896 143.033 82.7036 143.213 82.6716C143.393 82.6396 143.571 82.6736 143.747 82.7736C143.947 82.8856 144.077 83.0496 144.137 83.2656C144.197 83.4816 144.169 83.6936 144.053 83.9016C143.957 84.0656 143.791 84.2316 143.555 84.3996C143.323 84.5636 143.035 84.6996 142.691 84.8076C142.351 84.9196 141.951 84.9756 141.491 84.9756Z" fill="#A9A9A9"/>
<path d="M133.771 87.4836C133.447 87.4836 133.203 87.3536 133.039 87.0936C132.875 86.8376 132.869 86.5536 133.021 86.2416L134.143 83.9196L134.149 84.7716L131.779 79.5996C131.615 79.2556 131.625 78.9576 131.809 78.7056C131.993 78.4496 132.233 78.3216 132.529 78.3216C132.721 78.3216 132.893 78.3776 133.045 78.4896C133.201 78.6016 133.313 78.7396 133.381 78.9036L134.551 81.7836L134.851 82.5936H134.893L135.211 81.7596L136.405 78.8856C136.469 78.7296 136.575 78.5976 136.723 78.4896C136.875 78.3776 137.039 78.3216 137.215 78.3216C137.531 78.3216 137.773 78.4496 137.941 78.7056C138.109 78.9576 138.119 79.2416 137.971 79.5576L134.623 86.9016C134.539 87.0816 134.421 87.2236 134.269 87.3276C134.121 87.4316 133.955 87.4836 133.771 87.4836Z" fill="#A9A9A9"/>
<path d="M128.745 84.9756C127.685 84.9756 126.833 84.6576 126.189 84.0216C125.545 83.3816 125.223 82.5736 125.223 81.5976C125.223 80.6136 125.543 79.8016 126.183 79.1616C126.823 78.5216 127.693 78.2016 128.793 78.2016C129.193 78.2016 129.539 78.2456 129.831 78.3336C130.127 78.4216 130.387 78.5416 130.611 78.6936C130.839 78.8416 131.015 79.0036 131.139 79.1796C131.267 79.3676 131.315 79.5676 131.283 79.7796C131.255 79.9876 131.159 80.1516 130.995 80.2716C130.831 80.3956 130.655 80.4516 130.467 80.4396C130.279 80.4276 130.101 80.3596 129.933 80.2356C129.837 80.1516 129.739 80.0776 129.639 80.0136C129.543 79.9496 129.425 79.8976 129.285 79.8576C129.149 79.8136 128.981 79.7916 128.781 79.7916C128.293 79.7916 127.893 79.9596 127.581 80.2956C127.269 80.6276 127.113 81.0596 127.113 81.5916C127.113 82.1316 127.275 82.5636 127.599 82.8876C127.923 83.2116 128.315 83.3736 128.775 83.3736C128.983 83.3736 129.161 83.3516 129.309 83.3076C129.457 83.2636 129.575 83.2116 129.663 83.1516C129.755 83.0916 129.849 83.0176 129.945 82.9296C130.113 82.7896 130.287 82.7036 130.467 82.6716C130.647 82.6396 130.825 82.6736 131.001 82.7736C131.201 82.8856 131.331 83.0496 131.391 83.2656C131.451 83.4816 131.423 83.6936 131.307 83.9016C131.211 84.0656 131.045 84.2316 130.809 84.3996C130.577 84.5636 130.289 84.6996 129.945 84.8076C129.605 84.9196 129.205 84.9756 128.745 84.9756Z" fill="#A9A9A9"/>
<path d="M121.811 84.9696C120.731 84.9696 119.869 84.6576 119.225 84.0336C118.585 83.4096 118.265 82.5956 118.265 81.5916C118.265 80.6516 118.577 79.8516 119.201 79.1916C119.825 78.5316 120.667 78.2016 121.727 78.2016C122.663 78.2016 123.433 78.4916 124.037 79.0716C124.645 79.6516 124.949 80.3416 124.949 81.1416V81.1896C124.949 81.4456 124.865 81.6516 124.697 81.8076C124.533 81.9596 124.301 82.0356 124.001 82.0356H119.219V81.0336H123.233V81.0276C123.205 80.6316 123.059 80.3036 122.795 80.0436C122.531 79.7836 122.173 79.6536 121.721 79.6536C121.245 79.6536 120.853 79.8216 120.545 80.1576C120.241 80.4896 120.089 80.9576 120.089 81.5616C120.089 82.2016 120.259 82.6916 120.599 83.0316C120.939 83.3716 121.391 83.5416 121.955 83.5416C122.171 83.5416 122.355 83.5216 122.507 83.4816C122.663 83.4416 122.803 83.3876 122.927 83.3196C123.055 83.2476 123.183 83.1576 123.311 83.0496C123.459 82.9296 123.629 82.8656 123.821 82.8576C124.017 82.8456 124.187 82.9036 124.331 83.0316C124.479 83.1516 124.557 83.3096 124.565 83.5056C124.573 83.7016 124.501 83.8836 124.349 84.0516C124.177 84.2436 123.971 84.4056 123.731 84.5376C123.495 84.6696 123.225 84.7736 122.921 84.8496C122.621 84.9296 122.251 84.9696 121.811 84.9696Z" fill="#A9A9A9"/>
<path d="M114.942 84.8616C114.686 84.8616 114.464 84.7696 114.276 84.5856C114.092 84.3976 114 84.1716 114 83.9076V79.2216C114 78.9736 114.088 78.7616 114.264 78.5856C114.44 78.4056 114.65 78.3156 114.894 78.3156C115.138 78.3156 115.348 78.4016 115.524 78.5736C115.7 78.7456 115.788 78.9496 115.788 79.1856V79.5876L115.62 79.3896H115.836C115.964 79.0336 116.184 78.7476 116.496 78.5316C116.812 78.3116 117.156 78.2016 117.528 78.2016C117.656 78.2016 117.786 78.2176 117.918 78.2496C118.054 78.2816 118.174 78.3376 118.278 78.4176C118.382 78.4936 118.464 78.5996 118.524 78.7356C118.584 78.8716 118.602 79.0236 118.578 79.1916C118.55 79.3596 118.488 79.4976 118.392 79.6056C118.296 79.7096 118.188 79.7836 118.068 79.8276C117.952 79.8676 117.828 79.8856 117.696 79.8816C117.568 79.8736 117.45 79.8696 117.342 79.8696C116.922 79.8696 116.574 80.0156 116.298 80.3076C116.022 80.5996 115.884 81.0396 115.884 81.6276V83.9076C115.884 84.1716 115.79 84.3976 115.602 84.5856C115.418 84.7696 115.198 84.8616 114.942 84.8616Z" fill="#A9A9A9"/>
<path d="M266.544 267.522C265.024 290.694 264.263 302.28 259.267 311.065C254.868 318.8 248.227 325.02 240.221 328.903C231.127 333.314 219.516 333.314 196.295 333.314H89.7969C66.5757 333.314 54.9651 333.314 45.8711 328.903C37.8648 325.02 31.2232 318.8 26.8242 311.065C21.8279 302.28 21.0679 290.694 19.5479 267.522L4.29102 34.959C6.52051 51.7437 21.6598 64.2675 48 64.2676H238.273C264.614 64.2674 279.57 51.7437 281.8 34.959L266.544 267.522Z" fill="url(#paint5_linear_214_2)"/>
<path d="M165.682 83.9076V79.2276C165.682 78.9796 165.77 78.7656 165.946 78.5856C166.126 78.4056 166.338 78.3156 166.582 78.3156C166.826 78.3156 167.036 78.3996 167.212 78.5676C167.392 78.7356 167.482 78.9336 167.482 79.1616V79.5636L167.296 79.3236H167.524C167.76 78.9796 168.072 78.7076 168.46 78.5076C168.852 78.3036 169.282 78.2016 169.75 78.2016C170.45 78.2016 171.002 78.4076 171.406 78.8196C171.814 79.2316 172.018 79.7816 172.018 80.4696V83.9076C172.018 84.1716 171.926 84.3976 171.742 84.5856C171.558 84.7696 171.338 84.8616 171.082 84.8616C170.822 84.8616 170.598 84.7696 170.41 84.5856C170.226 84.3976 170.134 84.1716 170.134 83.9076V80.9616C170.134 80.5656 170.038 80.2616 169.846 80.0496C169.654 79.8376 169.36 79.7316 168.964 79.7316C168.556 79.7316 168.22 79.8656 167.956 80.1336C167.696 80.4016 167.566 80.7356 167.566 81.1356V83.9076C167.566 84.1716 167.472 84.3976 167.284 84.5856C167.1 84.7696 166.88 84.8616 166.624 84.8616C166.368 84.8616 166.146 84.7696 165.958 84.5856C165.774 84.3976 165.682 84.1716 165.682 83.9076Z" fill="#A9A9A9"/>
<path d="M163.58 84.8616C163.32 84.8616 163.096 84.7676 162.908 84.5796C162.724 84.3916 162.632 84.1656 162.632 83.9016V79.2696C162.632 79.0096 162.724 78.7856 162.908 78.5976C163.096 78.4096 163.32 78.3156 163.58 78.3156C163.836 78.3156 164.056 78.4096 164.24 78.5976C164.424 78.7856 164.516 79.0096 164.516 79.2696V83.9016C164.516 84.1656 164.424 84.3916 164.24 84.5796C164.056 84.7676 163.836 84.8616 163.58 84.8616ZM163.586 77.3916C163.286 77.3916 163.028 77.2876 162.812 77.0796C162.6 76.8716 162.494 76.6176 162.494 76.3176C162.494 76.0176 162.6 75.7676 162.812 75.5676C163.028 75.3676 163.286 75.2676 163.586 75.2676C163.894 75.2676 164.148 75.3676 164.348 75.5676C164.552 75.7676 164.654 76.0196 164.654 76.3236C164.654 76.6196 164.552 76.8716 164.348 77.0796C164.148 77.2876 163.894 77.3916 163.586 77.3916Z" fill="#A9A9A9"/>
<path d="M158.842 84.9696C158.378 84.9696 157.966 84.8776 157.606 84.6936C157.246 84.5056 156.962 84.2716 156.754 83.9916H156.304L156.724 83.5416V84.0756C156.724 84.2836 156.64 84.4736 156.472 84.6456C156.304 84.8176 156.086 84.9036 155.818 84.9036C155.558 84.9036 155.338 84.8096 155.158 84.6216C154.982 84.4336 154.894 84.2056 154.894 83.9376V76.8156C154.894 76.5556 154.986 76.3336 155.17 76.1496C155.358 75.9616 155.58 75.8676 155.836 75.8676C156.092 75.8676 156.312 75.9616 156.496 76.1496C156.684 76.3336 156.778 76.5556 156.778 76.8156V79.2276H156.82C157.016 78.9436 157.298 78.7016 157.666 78.5016C158.034 78.3016 158.454 78.2016 158.926 78.2016C159.754 78.2016 160.456 78.5096 161.032 79.1256C161.612 79.7376 161.902 80.5556 161.902 81.5796C161.902 82.5836 161.608 83.3996 161.02 84.0276C160.436 84.6556 159.71 84.9696 158.842 84.9696ZM158.362 83.4096C158.862 83.4096 159.262 83.2416 159.562 82.9056C159.862 82.5656 160.012 82.1256 160.012 81.5856C160.012 81.0496 159.86 80.6136 159.556 80.2776C159.256 79.9376 158.858 79.7676 158.362 79.7676C157.882 79.7676 157.488 79.9356 157.18 80.2716C156.872 80.6076 156.718 81.0496 156.718 81.5976C156.718 82.1376 156.868 82.5756 157.168 82.9116C157.472 83.2436 157.87 83.4096 158.362 83.4096Z" fill="#A9A9A9"/>
<path d="M151.037 84.9696C149.957 84.9696 149.095 84.6576 148.451 84.0336C147.811 83.4096 147.491 82.5956 147.491 81.5916C147.491 80.6516 147.803 79.8516 148.427 79.1916C149.051 78.5316 149.893 78.2016 150.953 78.2016C151.889 78.2016 152.659 78.4916 153.263 79.0716C153.871 79.6516 154.175 80.3416 154.175 81.1416V81.1896C154.175 81.4456 154.091 81.6516 153.923 81.8076C153.759 81.9596 153.527 82.0356 153.227 82.0356H148.445V81.0336H152.459V81.0276C152.431 80.6316 152.285 80.3036 152.021 80.0436C151.757 79.7836 151.399 79.6536 150.947 79.6536C150.471 79.6536 150.079 79.8216 149.771 80.1576C149.467 80.4896 149.315 80.9576 149.315 81.5616C149.315 82.2016 149.485 82.6916 149.825 83.0316C150.165 83.3716 150.617 83.5416 151.181 83.5416C151.397 83.5416 151.581 83.5216 151.733 83.4816C151.889 83.4416 152.029 83.3876 152.153 83.3196C152.281 83.2476 152.409 83.1576 152.537 83.0496C152.685 82.9296 152.855 82.8656 153.047 82.8576C153.243 82.8456 153.413 82.9036 153.557 83.0316C153.705 83.1516 153.783 83.3096 153.791 83.5056C153.799 83.7016 153.727 83.8836 153.575 84.0516C153.403 84.2436 153.197 84.4056 152.957 84.5376C152.721 84.6696 152.451 84.7736 152.147 84.8496C151.847 84.9296 151.477 84.9696 151.037 84.9696Z" fill="#A9A9A9"/>
<path d="M145.856 84.8616C145.6 84.8616 145.378 84.7696 145.19 84.5856C145.006 84.3976 144.914 84.1736 144.914 83.9136V76.8156C144.914 76.5556 145.006 76.3336 145.19 76.1496C145.378 75.9616 145.6 75.8676 145.856 75.8676C146.112 75.8676 146.332 75.9616 146.516 76.1496C146.704 76.3336 146.798 76.5556 146.798 76.8156V83.9136C146.798 84.1736 146.704 84.3976 146.516 84.5856C146.332 84.7696 146.112 84.8616 145.856 84.8616Z" fill="#A9A9A9"/>
<path d="M141.491 84.9756C140.431 84.9756 139.579 84.6576 138.935 84.0216C138.291 83.3816 137.969 82.5736 137.969 81.5976C137.969 80.6136 138.289 79.8016 138.929 79.1616C139.569 78.5216 140.439 78.2016 141.539 78.2016C141.939 78.2016 142.285 78.2456 142.577 78.3336C142.873 78.4216 143.133 78.5416 143.357 78.6936C143.585 78.8416 143.761 79.0036 143.885 79.1796C144.013 79.3676 144.061 79.5676 144.029 79.7796C144.001 79.9876 143.905 80.1516 143.741 80.2716C143.577 80.3956 143.401 80.4516 143.213 80.4396C143.025 80.4276 142.847 80.3596 142.679 80.2356C142.583 80.1516 142.485 80.0776 142.385 80.0136C142.289 79.9496 142.171 79.8976 142.031 79.8576C141.895 79.8136 141.727 79.7916 141.527 79.7916C141.039 79.7916 140.639 79.9596 140.327 80.2956C140.015 80.6276 139.859 81.0596 139.859 81.5916C139.859 82.1316 140.021 82.5636 140.345 82.8876C140.669 83.2116 141.061 83.3736 141.521 83.3736C141.729 83.3736 141.907 83.3516 142.055 83.3076C142.203 83.2636 142.321 83.2116 142.409 83.1516C142.501 83.0916 142.595 83.0176 142.691 82.9296C142.859 82.7896 143.033 82.7036 143.213 82.6716C143.393 82.6396 143.571 82.6736 143.747 82.7736C143.947 82.8856 144.077 83.0496 144.137 83.2656C144.197 83.4816 144.169 83.6936 144.053 83.9016C143.957 84.0656 143.791 84.2316 143.555 84.3996C143.323 84.5636 143.035 84.6996 142.691 84.8076C142.351 84.9196 141.951 84.9756 141.491 84.9756Z" fill="#A9A9A9"/>
<path d="M133.771 87.4836C133.447 87.4836 133.203 87.3536 133.039 87.0936C132.875 86.8376 132.869 86.5536 133.021 86.2416L134.143 83.9196L134.149 84.7716L131.779 79.5996C131.615 79.2556 131.625 78.9576 131.809 78.7056C131.993 78.4496 132.233 78.3216 132.529 78.3216C132.721 78.3216 132.893 78.3776 133.045 78.4896C133.201 78.6016 133.313 78.7396 133.381 78.9036L134.551 81.7836L134.851 82.5936H134.893L135.211 81.7596L136.405 78.8856C136.469 78.7296 136.575 78.5976 136.723 78.4896C136.875 78.3776 137.039 78.3216 137.215 78.3216C137.531 78.3216 137.773 78.4496 137.941 78.7056C138.109 78.9576 138.119 79.2416 137.971 79.5576L134.623 86.9016C134.539 87.0816 134.421 87.2236 134.269 87.3276C134.121 87.4316 133.955 87.4836 133.771 87.4836Z" fill="#A9A9A9"/>
<path d="M128.745 84.9756C127.685 84.9756 126.833 84.6576 126.189 84.0216C125.545 83.3816 125.223 82.5736 125.223 81.5976C125.223 80.6136 125.543 79.8016 126.183 79.1616C126.823 78.5216 127.693 78.2016 128.793 78.2016C129.193 78.2016 129.539 78.2456 129.831 78.3336C130.127 78.4216 130.387 78.5416 130.611 78.6936C130.839 78.8416 131.015 79.0036 131.139 79.1796C131.267 79.3676 131.315 79.5676 131.283 79.7796C131.255 79.9876 131.159 80.1516 130.995 80.2716C130.831 80.3956 130.655 80.4516 130.467 80.4396C130.279 80.4276 130.101 80.3596 129.933 80.2356C129.837 80.1516 129.739 80.0776 129.639 80.0136C129.543 79.9496 129.425 79.8976 129.285 79.8576C129.149 79.8136 128.981 79.7916 128.781 79.7916C128.293 79.7916 127.893 79.9596 127.581 80.2956C127.269 80.6276 127.113 81.0596 127.113 81.5916C127.113 82.1316 127.275 82.5636 127.599 82.8876C127.923 83.2116 128.315 83.3736 128.775 83.3736C128.983 83.3736 129.161 83.3516 129.309 83.3076C129.457 83.2636 129.575 83.2116 129.663 83.1516C129.755 83.0916 129.849 83.0176 129.945 82.9296C130.113 82.7896 130.287 82.7036 130.467 82.6716C130.647 82.6396 130.825 82.6736 131.001 82.7736C131.201 82.8856 131.331 83.0496 131.391 83.2656C131.451 83.4816 131.423 83.6936 131.307 83.9016C131.211 84.0656 131.045 84.2316 130.809 84.3996C130.577 84.5636 130.289 84.6996 129.945 84.8076C129.605 84.9196 129.205 84.9756 128.745 84.9756Z" fill="#A9A9A9"/>
<path d="M121.811 84.9696C120.731 84.9696 119.869 84.6576 119.225 84.0336C118.585 83.4096 118.265 82.5956 118.265 81.5916C118.265 80.6516 118.577 79.8516 119.201 79.1916C119.825 78.5316 120.667 78.2016 121.727 78.2016C122.663 78.2016 123.433 78.4916 124.037 79.0716C124.645 79.6516 124.949 80.3416 124.949 81.1416V81.1896C124.949 81.4456 124.865 81.6516 124.697 81.8076C124.533 81.9596 124.301 82.0356 124.001 82.0356H119.219V81.0336H123.233V81.0276C123.205 80.6316 123.059 80.3036 122.795 80.0436C122.531 79.7836 122.173 79.6536 121.721 79.6536C121.245 79.6536 120.853 79.8216 120.545 80.1576C120.241 80.4896 120.089 80.9576 120.089 81.5616C120.089 82.2016 120.259 82.6916 120.599 83.0316C120.939 83.3716 121.391 83.5416 121.955 83.5416C122.171 83.5416 122.355 83.5216 122.507 83.4816C122.663 83.4416 122.803 83.3876 122.927 83.3196C123.055 83.2476 123.183 83.1576 123.311 83.0496C123.459 82.9296 123.629 82.8656 123.821 82.8576C124.017 82.8456 124.187 82.9036 124.331 83.0316C124.479 83.1516 124.557 83.3096 124.565 83.5056C124.573 83.7016 124.501 83.8836 124.349 84.0516C124.177 84.2436 123.971 84.4056 123.731 84.5376C123.495 84.6696 123.225 84.7736 122.921 84.8496C122.621 84.9296 122.251 84.9696 121.811 84.9696Z" fill="#A9A9A9"/>
<path d="M114.942 84.8616C114.686 84.8616 114.464 84.7696 114.276 84.5856C114.092 84.3976 114 84.1716 114 83.9076V79.2216C114 78.9736 114.088 78.7616 114.264 78.5856C114.44 78.4056 114.65 78.3156 114.894 78.3156C115.138 78.3156 115.348 78.4016 115.524 78.5736C115.7 78.7456 115.788 78.9496 115.788 79.1856V79.5876L115.62 79.3896H115.836C115.964 79.0336 116.184 78.7476 116.496 78.5316C116.812 78.3116 117.156 78.2016 117.528 78.2016C117.656 78.2016 117.786 78.2176 117.918 78.2496C118.054 78.2816 118.174 78.3376 118.278 78.4176C118.382 78.4936 118.464 78.5996 118.524 78.7356C118.584 78.8716 118.602 79.0236 118.578 79.1916C118.55 79.3596 118.488 79.4976 118.392 79.6056C118.296 79.7096 118.188 79.7836 118.068 79.8276C117.952 79.8676 117.828 79.8856 117.696 79.8816C117.568 79.8736 117.45 79.8696 117.342 79.8696C116.922 79.8696 116.574 80.0156 116.298 80.3076C116.022 80.5996 115.884 81.0396 115.884 81.6276V83.9076C115.884 84.1716 115.79 84.3976 115.602 84.5856C115.418 84.7696 115.198 84.8616 114.942 84.8616Z" fill="#A9A9A9"/>
<path d="M12.5898 60.1436L12.5937 60.2002C13.8484 78.6704 29.1972 93.0115 47.71 93.0117H238.07C256.515 93.0117 271.819 78.7499 273.118 60.3516L273.12 60.3281L273.122 60.3057L275.738 28.4746L282 29.2676L280 60.7676L280.001 60.7686C278.406 83.3561 260.714 101.012 238.07 101.012H47.71C25.0079 101.012 7.56681 83.4091 6 60.7676L4 29.2676C4 29.2676 4 37.2676 6.37195 42.7676C7.73422 45.9264 10.4493 49.7676 10.4493 49.7676L12.5898 60.1436Z" fill="url(#paint6_linear_214_2)" fill-opacity="0.15"/>
<defs>
<linearGradient id="paint0_linear_214_2" x1="143.046" y1="-18.8663" x2="143.046" y2="333.317" gradientUnits="userSpaceOnUse">
<stop stop-color="#E0E0E0"/>
<stop offset="1" stop-color="#BABABA"/>
</linearGradient>
<linearGradient id="paint1_linear_214_2" x1="143.045" y1="333.314" x2="143.045" y2="-18.8669" gradientUnits="userSpaceOnUse">
<stop stop-color="#CECECE"/>
<stop offset="1" stop-color="#E9E9E9"/>
</linearGradient>
<linearGradient id="paint2_linear_214_2" x1="143.045" y1="0" x2="143.045" y2="333.314" gradientUnits="userSpaceOnUse">
<stop stop-color="#E5E5E5"/>
<stop offset="1" stop-color="#E5E5E5"/>
</linearGradient>
<linearGradient id="paint3_linear_214_2" x1="274.275" y1="143.343" x2="22.7287" y2="147.838" gradientUnits="userSpaceOnUse">
<stop stop-color="#CDCDCD"/>
<stop offset="0.301058" stop-color="#DEDEDE"/>
<stop offset="0.730732" stop-color="#E6E6E6"/>
<stop offset="0.905286" stop-color="#F0F0F0"/>
<stop offset="1" stop-color="#D9D9D9"/>
</linearGradient>
<linearGradient id="paint4_linear_214_2" x1="4" y1="64.7432" x2="282" y2="64.7432" gradientUnits="userSpaceOnUse">
<stop stop-color="#DFDFDF"/>
<stop offset="0.235519" stop-color="#A8A4A4"/>
<stop offset="0.788426" stop-color="#999999"/>
<stop offset="0.87016" stop-color="#CECECE"/>
<stop offset="1" stop-color="#CECECE"/>
</linearGradient>
<linearGradient id="paint5_linear_214_2" x1="274.275" y1="143.343" x2="22.7287" y2="147.838" gradientUnits="userSpaceOnUse">
<stop stop-color="#CDCDCD"/>
<stop offset="0.301058" stop-color="#DEDEDE"/>
<stop offset="0.730732" stop-color="#E6E6E6"/>
<stop offset="0.905286" stop-color="#F0F0F0"/>
<stop offset="1" stop-color="#D9D9D9"/>
</linearGradient>
<linearGradient id="paint6_linear_214_2" x1="4" y1="64.7432" x2="282" y2="64.7432" gradientUnits="userSpaceOnUse">
<stop stop-color="#DFDFDF"/>
<stop offset="0.235519" stop-color="#A8A4A4"/>
<stop offset="0.788426" stop-color="#999999"/>
<stop offset="0.87016" stop-color="#CECECE"/>
<stop offset="1" stop-color="#CECECE"/>
</linearGradient>
</defs>
</svg>
