<svg width="322" height="420" viewBox="0 0 322 420" fill="none" xmlns="http://www.w3.org/2000/svg">
<path d="M253.743 42.7324C281.142 42.7325 300.091 54.3755 300.091 73.2559C300.091 92.1362 284.801 107.441 256.183 107.441H65.9092C37.2905 107.441 22 92.1362 22 73.2559C22 54.3755 40.9495 42.7325 68.3486 42.7324H253.743Z" fill="url(#paint0_linear_214_2)"/>
<path fill-rule="evenodd" clip-rule="evenodd" d="M253.743 42.7324C281.142 42.7325 300.091 54.3755 300.091 73.2559L300.08 74.1377C299.61 92.6105 284.355 107.441 256.183 107.441H65.9092L64.5771 107.431C37.2567 106.97 22.473 92.3172 22.0107 74.1377L22 73.2559C22.0001 54.6706 40.3619 43.0984 67.0703 42.7412L68.3486 42.7324H253.743ZM68.3486 50.7324C55.6477 50.7325 45.7183 53.4509 39.2393 57.6348C33.0106 61.6571 30 66.9226 30 73.2559C30 80.4001 32.8282 86.6715 38.3535 91.291C43.9758 95.9913 52.9815 99.4413 65.9092 99.4414H256.182C269.109 99.4414 278.115 95.9913 283.737 91.291C289.263 86.6715 292.091 80.4003 292.091 73.2559C292.091 66.9225 289.08 61.6571 282.852 57.6348C276.372 53.451 266.443 50.7324 253.742 50.7324H68.3486Z" fill="url(#paint1_linear_214_2)"/>
<path fill-rule="evenodd" clip-rule="evenodd" d="M49.9629 69.5663C57.6377 57.4342 77.0664 49.5109 97.1006 59.6141L98.0547 60.1083L98.0566 60.1102C108.578 65.7179 115.686 73.3397 120.193 80.3876C124.388 86.9468 126.707 93.625 126.973 98.2069L126.992 98.6434V98.6561C127.012 99.3652 126.987 100.052 126.92 100.717C126.912 101.137 126.887 101.554 126.84 101.967L126.838 101.977C125.669 112.065 117.721 115.919 112.389 116.976C112.561 118.999 112.385 121.209 111.49 123.387C110.506 125.781 108.908 127.521 107.204 128.744C104.308 130.823 100.572 131.687 98.4424 132.212H98.4404C92.5548 133.66 77.3964 134.518 62.8945 121.215L62.2041 120.57C51.3194 110.227 45.1351 98.9023 45.001 87.5272L45 87.0292C45.0282 82.7172 46.0741 77.5019 47.9883 73.3934C48.5337 72.0653 49.191 70.7862 49.9629 69.5663Z" fill="white"/>
<path d="M93.5584 69.1818C76.7905 60.2514 61.5271 66.6152 56.0257 75.3128C54.2248 78.1566 52.951 83.3286 53.0004 87.4307C53.0992 95.8733 57.7277 105.28 67.7148 114.771C80.0025 126.445 92.5427 125.425 96.5287 124.444C101.547 123.208 104.913 122.155 104.397 117.432C104.331 116.811 103.804 115.685 103.007 115.192C100.454 113.629 95.1232 112.814 92.614 109.05C88.9684 103.568 93.5035 103.29 97.8464 105.635C102.497 108.146 105.154 109.715 109.821 109.283C113.242 108.967 118.216 106.882 118.891 101.056C119.495 95.7846 111.875 78.9382 93.5584 69.1818ZM100.405 97.8301C99.1202 99.8036 95.9467 99.1273 93.8659 97.2647C91.785 95.4021 91.5159 92.2978 92.8666 91.0783C94.2392 89.8421 96.8197 90.1248 98.9006 91.9874C100.976 93.8555 101.41 96.278 100.405 97.8301Z" fill="#AC5810"/>
<path d="M94.2941 67.1696C77.5263 58.2392 62.2244 65.1462 56.7229 73.8438C51.216 82.547 53.6099 98.6616 68.4451 112.758C80.7327 124.433 93.2729 123.413 97.259 122.432C102.277 121.196 105.819 118.784 103.611 115.708C102.091 113.584 96.6385 111.982 93.3498 107.038C89.7041 101.555 94.2392 101.278 98.5822 103.623C103.233 106.134 105.89 107.703 110.557 107.271C113.977 106.955 119.149 104.283 118.996 98.8834C118.836 93.5783 112.61 76.9315 94.2941 67.1696ZM102.014 97.6749C100.449 99.3823 97.1162 98.9166 94.5686 96.6438C92.0266 94.3655 91.2304 91.1392 92.7952 89.4374C94.36 87.73 97.6927 88.1957 100.24 90.4685C102.788 92.7413 103.578 95.9731 102.014 97.6749Z" fill="#F2A259"/>
<path d="M77.2243 105.402C77.8557 103.773 82.3469 101.988 86.4757 104.953C87.6342 105.785 89.0837 107.902 88.9354 110.563C88.4523 119.255 74.3253 112.903 77.2243 105.402Z" fill="#EEEEEE"/>
<path d="M64.1076 90.6625C65.5516 88.3343 69.06 88.0682 72.1292 90.0804C74.8634 91.871 77.1474 96.278 73.7763 99.1605C71.9699 100.707 68.8459 99.7481 66.9187 98.257C64.5798 96.4554 62.5538 93.1681 64.1076 90.6625Z" fill="#2686C6"/>
<path d="M82.7422 70.346C83.1869 68.5 86.289 68.184 88.4852 69.01C92.2791 70.4402 93.9976 74.2319 92.5976 76.3439C90.5496 79.4316 86.0859 78.3728 84.3948 76.6044C81.5233 73.611 82.3689 71.8926 82.7422 70.346Z" fill="#FFEE58"/>
<path d="M104.726 79.3817C107.768 80.7786 108.163 82.9904 107.581 84.6036C107.219 85.6014 106.477 86.9706 104.962 87.0926C102.398 87.3032 102.041 85.1635 100.213 84.5759C98.6755 84.0825 98.0496 81.9594 98.6535 80.5347C99.2136 79.2209 100.85 77.5967 104.726 79.3817Z" fill="#7CB342"/>
<path d="M87.8483 112.221C87.0906 112.914 84.4607 113.767 81.1225 111.661C79.9915 110.946 78.9099 109.909 78.3004 108.357C77.8228 107.137 77.9271 105.962 78.1412 105.441C78.7561 103.939 79.695 103.662 79.695 103.662C78.7506 103.595 76.9662 104.859 76.6698 106.517C76.5764 107.038 75.9121 110.297 80.1891 113.252C83.8732 115.802 89.3198 115.563 88.9629 110.43C88.7982 111.062 88.3315 111.783 87.8483 112.221Z" fill="#B0B0B0"/>
<path d="M75.3795 94.9032C75.2752 96.8822 72.9802 97.9244 71.7009 97.9299C68.0827 97.9354 64.8323 95.6405 64.6072 91.555C64.5688 90.8233 64.9257 89.7645 64.9257 89.7645C64.448 89.9696 63.7727 91.0117 63.6299 91.5993C62.7844 95.1249 66.3038 99.2326 70.0098 100.064C71.8876 100.485 74.254 99.8368 75.116 98.1405C75.7309 96.9321 75.6101 95.8955 75.3795 94.9032Z" fill="#01579B"/>
<path d="M88.0405 76.61C85.5808 76.3273 84.2191 74.7031 83.8623 74.3317C82.885 73.3006 82.281 72.2972 82.6324 70.8116C82.7422 70.3349 83.0112 69.7251 83.3407 69.3814C82.9399 69.5144 82.292 70.3848 82.0888 70.8559C81.8802 71.3271 81.1225 73.0955 82.7477 75.274C83.7524 76.6266 85.5039 78.1511 88.0954 78.5169C89.9347 78.7775 91.2524 78.1123 92.3505 77.0313C93.0972 76.294 93.4266 74.631 92.9819 73.7718C93.0533 74.3982 91.9167 77.059 88.0405 76.61Z" fill="#DF7F14"/>
<path d="M108.273 83.3341C108.048 82.4971 107.405 81.6268 107.339 81.5824C107.619 82.1257 108.174 83.7554 107.01 85.3408C106.423 86.1391 104.655 87.1203 102.568 85.4129C101.953 84.9085 101.459 84.4095 100.35 83.9993C97.5335 82.9516 98.7633 80.058 99.7406 79.16C98.972 79.5646 98.2747 80.2908 97.9837 81.3995C97.5774 82.9461 98.5822 84.5648 100.109 85.3408C101.843 86.2222 102.404 87.9241 104.781 87.9241C104.902 87.9241 105.028 87.9185 105.165 87.9074C106.768 87.7688 107.444 87.1424 107.932 86.3775C108.531 85.424 108.547 84.343 108.273 83.3341Z" fill="#558B2F"/>
<path d="M65.2551 72.7684C66.5069 71.5212 68.6866 70.2018 71.8766 71.8815C73.7983 72.8904 76.0329 74.0767 75.0226 78.1788C74.3967 80.7232 70.7291 82.0702 67.6654 79.2376C66.452 78.1178 61.84 76.1721 65.2551 72.7684Z" fill="#F44336"/>
<path d="M75.7529 77.63C75.7913 76.6599 75.2971 75.4791 75.1269 75.08C75.1544 75.6621 75.654 77.1311 73.3645 79.0768C72.5684 79.7531 71.1244 80.2686 69.5486 79.6422C68.7415 79.3207 67.5831 77.9737 66.754 77.6355C63.6739 76.3827 65.0025 73.0511 65.4363 72.5966C64.739 73.0899 64.146 73.8771 63.9264 75.0246C63.6409 76.5268 63.9045 77.9459 65.9469 79.5702C71.7448 84.1878 73.5237 81.405 74.1551 80.6955C74.9512 79.8307 75.7089 78.6998 75.7529 77.63Z" fill="#C62828"/>
<path d="M87.173 69.204C86.3659 68.8215 84.0599 68.9324 83.6152 70.8726C83.3462 72.0367 84.1917 73.2174 84.9878 73.0788C85.8937 72.9236 85.4106 71.499 85.9541 71.0943C86.7832 70.4845 88.304 69.7417 87.173 69.204Z" fill="#A9A9A9"/>
<path d="M70.1636 72.0311C69.3675 71.499 66.8254 71.4934 66.0622 73.4613C65.601 74.6421 66.3203 76.0113 67.1823 75.9891C68.165 75.967 67.6929 74.7973 68.5109 74.0545C69.5432 73.1176 71.2781 72.774 70.1636 72.0311Z" fill="#A9A9A9"/>
<path d="M69.7847 89.7922C69.0325 89.3099 66.8034 89.1214 65.881 90.8842C65.2057 92.1814 66.1336 93.6116 66.9407 93.5728C67.8576 93.5284 67.5501 92.0539 68.1376 91.7213C69.0325 91.2168 70.8389 90.4685 69.7847 89.7922Z" fill="#A9A9A9"/>
<path d="M82.594 104.554C81.7869 104.172 79.4809 104.283 79.0361 106.223C78.7671 107.387 79.6126 108.568 80.4088 108.429C81.3147 108.274 80.8315 106.849 81.3751 106.445C82.1986 105.835 83.7195 105.092 82.594 104.554Z" fill="#A9A9A9"/>
<path d="M103.282 79.5646C102.557 79.0435 100.268 78.7387 99.4881 80.568C99.0214 81.6656 99.6418 82.9794 100.449 82.9849C101.366 82.9904 101.141 81.5048 101.75 81.2055C102.667 80.7565 104.298 80.2963 103.282 79.5646Z" fill="#A9A9A9"/>
<path fill-rule="evenodd" clip-rule="evenodd" d="M202.779 81.4845C202.538 82.9387 202.417 83.6657 202.696 84.2395C202.795 84.441 202.926 84.6245 203.085 84.7825C203.537 85.2324 204.264 85.3531 205.719 85.5947L212.282 86.6849C214.912 87.1217 216.226 87.3402 216.67 88.301C217.114 89.2619 216.428 90.4046 215.055 92.6901L213.34 95.5471C212.586 96.8035 211.69 97.985 210.687 99.0991C210.028 99.8379 209.699 100.207 209.573 100.486C209.42 100.825 209.392 100.958 209.396 101.33C209.399 101.636 209.56 102.132 209.882 103.126C209.994 103.472 210.094 103.822 210.181 104.177C210.33 104.77 210.469 105.366 210.595 105.962L210.942 107.757L210.97 107.91L210.987 108.065L211.73 114.111C212.03 116.544 212.179 117.761 211.456 118.454C210.732 119.148 209.523 118.947 207.105 118.545L165.2 111.584C165.111 111.569 165.051 111.486 165.066 111.397C165.084 111.287 164.989 111.192 164.879 111.208C163.002 111.48 161.1 111.437 159.214 111.123C156.787 110.72 154.47 109.905 152.398 108.564L151.525 107.957L151.492 107.93L151.459 107.906C151.387 107.851 151.316 107.795 151.246 107.739C150.664 107.273 149.771 107.455 149.488 108.146C149.303 108.6 148.828 108.865 148.344 108.784L118.712 103.862C117.199 103.611 116.443 103.485 115.974 102.963C115.506 102.442 115.462 101.676 115.374 100.145L113.648 70.1016C113.516 67.7965 113.45 66.6439 114.165 66.0013C114.881 65.3587 116.019 65.5479 118.297 65.9263L161.501 73.103C162.639 73.292 163.306 74.4897 162.868 75.5567C162.388 76.7251 163.236 78.018 164.484 78.2125C164.548 78.2225 164.612 78.2328 164.675 78.2434C166.562 78.5567 168.38 79.123 170.07 79.9885C170.167 80.0379 170.284 79.9798 170.302 79.8727C170.317 79.7862 170.398 79.7276 170.485 79.742L184.37 82.0484C184.386 82.051 184.402 82.0516 184.418 82.0503C184.505 82.0436 184.576 81.9804 184.591 81.8944L185.077 78.9668C185.384 77.1161 185.538 76.1908 186.206 75.709C186.211 75.7059 186.215 75.703 186.219 75.7C186.891 75.2233 187.816 75.377 189.667 75.6844L199.84 77.3743C201.294 77.6159 202.021 77.7366 202.474 78.1865C202.633 78.3445 202.764 78.528 202.862 78.7295C203.142 79.3033 203.021 80.0303 202.779 81.4845Z" fill="white"/>
<path fill-rule="evenodd" clip-rule="evenodd" d="M163.65 84.4268C165.603 84.7514 167.259 85.4206 168.615 86.4336C169.996 87.4506 170.98 88.7945 171.566 90.4666C172.181 92.1186 172.299 94.0832 171.921 96.3579C171.539 98.6577 170.776 100.502 169.631 101.887C168.515 103.252 167.14 104.18 165.508 104.671C163.901 105.166 162.146 105.257 160.242 104.941C158.289 104.617 156.633 103.947 155.277 102.934C153.924 101.896 152.953 100.553 152.363 98.9043C151.777 97.2313 151.672 95.2578 152.05 92.9827C152.428 90.7073 153.163 88.8855 154.255 87.5165C155.371 86.1519 156.732 85.222 158.339 84.7265C159.974 84.2104 161.745 84.1105 163.65 84.4268ZM162.809 88.5559C161.894 88.4042 161.066 88.4949 160.325 88.8289C159.587 89.1385 158.969 89.7232 158.47 90.5808C157.977 91.4133 157.621 92.4845 157.403 93.7943C157.054 95.8959 157.21 97.5613 157.87 98.7891C158.53 100.017 159.602 100.755 161.086 101.002C162.05 101.162 162.892 101.073 163.609 100.735C164.35 100.401 164.955 99.8135 165.424 98.9767C165.922 98.1194 166.278 97.0486 166.492 95.7632C166.717 94.4029 166.724 93.2216 166.509 92.2202C166.323 91.1982 165.925 90.3823 165.315 89.7726C164.709 89.1382 163.872 88.7326 162.809 88.5559Z" fill="black"/>
<path d="M126.217 94.0648L126.628 94.133L134.239 74.9282L141.028 76.056L142.022 96.6901L142.468 96.7643L149.412 77.4487L154.94 78.3669L145.27 101.92L137.813 100.682L136.968 80.0691L136.633 80.0134L129.169 99.2458L121.528 97.9766L120.067 72.5742L125.891 73.5415L126.217 94.0648Z" fill="black"/>
<path d="M187.684 88.5339C187.956 88.5791 188.259 88.665 188.592 88.7965L187.426 94.4352C187.085 94.201 186.697 94.0117 186.265 93.8637C185.832 93.7157 185.443 93.6125 185.097 93.555C184.132 93.3947 183.265 93.4788 182.498 93.8089C181.732 94.1391 181.057 94.6882 180.472 95.4547C179.916 96.2008 179.467 97.1553 179.122 98.3172L177.63 107.296L172.251 106.402L175.486 86.9265L179.899 87.6597L178.833 94.3045L179.539 94.4218C180.012 92.7981 180.571 91.5064 181.213 90.5459C181.88 89.5897 182.686 88.9348 183.633 88.5839C184.581 88.2332 185.698 88.164 186.984 88.3773C187.206 88.4143 187.44 88.4681 187.684 88.5339Z" fill="black"/>
<path d="M193.707 97.8424C194.56 97.4505 195.382 97.015 196.173 96.5365C196.993 96.0374 197.743 95.501 198.423 94.9278C199.127 94.3591 199.759 93.7667 200.319 93.1488C200.904 92.5347 201.412 91.919 201.845 91.305L207.967 92.322C207.44 93.2 206.786 94.0696 206.007 94.9313C205.258 95.7719 204.396 96.5307 203.421 97.2068C202.473 97.8624 201.408 98.3852 200.226 98.7732C199.043 99.1612 197.779 99.3454 196.436 99.3257L196.331 99.9567C198.037 99.9353 199.406 100.189 200.436 100.716C201.466 101.243 202.263 101.948 202.828 102.829C203.422 103.69 203.849 104.65 204.105 105.709C204.365 106.743 204.584 107.782 204.766 108.828L205.14 111.865L199.316 110.898L199.135 109C198.99 107.731 198.783 106.603 198.515 105.618C198.246 104.633 197.806 103.837 197.196 103.227C196.615 102.597 195.732 102.184 194.545 101.987L193.06 101.74L191.747 109.641L186.479 108.766L190.885 82.2406L196.153 83.1157L193.707 97.8424Z" fill="black"/>
<path d="M204.26 85.9966C203.402 82.7958 205.302 79.5057 208.503 78.6481L251.003 67.2601C254.204 66.4024 257.494 68.3019 258.352 71.5027L269.74 114.003C270.598 117.204 268.698 120.494 265.497 121.352L222.997 132.74C219.796 133.598 216.506 131.698 215.648 128.497L204.26 85.9966Z" fill="white"/>
<path d="M250.237 72.6418L210.892 83.1844C209.227 83.6304 208.222 85.3283 208.659 86.9575L218.977 125.466C219.413 127.095 221.133 128.063 222.797 127.617L262.143 117.074C263.807 116.628 264.812 114.93 264.375 113.301L254.057 74.793C253.621 73.1638 251.902 72.1958 250.237 72.6418Z" fill="#CCA633"/>
<path d="M247.853 73.2805L210.702 83.2351C209.151 83.6507 208.202 85.2543 208.609 86.7724L218.322 123.022C218.729 124.54 220.315 125.464 221.904 125.039L259.017 115.094C260.568 114.679 261.527 113.112 261.11 111.557L251.397 75.3074C251.028 73.7791 249.49 72.8816 247.929 73.2602C247.891 73.2703 247.891 73.2703 247.853 73.2805Z" fill="#F4D136"/>
<path d="M222.254 83.6718C222.026 82.8202 221.351 82.7232 217.9 83.7669C215.017 84.6586 213.669 85.377 213.076 86.6469C212.484 87.9168 212.822 90.0882 213.459 92.6162C213.936 94.3935 214.382 96.0597 215.328 95.8063C216.614 95.4616 215.83 92.5365 216.453 90.6234C217.633 86.8547 222.552 84.7827 222.254 83.6718Z" fill="#CCA633"/>
<path d="M256.183 107.441H65.9092L64.5771 107.431C37.2567 106.97 22.473 92.3172 22.0107 74.1377L22 73.2559H30C30 80.4001 32.8282 86.6715 38.3535 91.291C43.9758 95.9913 52.9815 99.4413 65.9092 99.4414H256.182C269.109 99.4414 278.115 95.9913 283.737 91.291C289.263 86.6715 292.091 80.4003 292.091 73.2559H300.091L300.08 74.1377C299.61 92.6105 284.355 107.441 256.183 107.441Z" fill="url(#paint2_linear_214_2)"/>
<path d="M284.544 310.255C283.024 333.426 282.263 345.012 277.267 353.798C272.868 361.533 266.227 367.753 258.221 371.636C249.127 376.046 237.516 376.047 214.295 376.047H107.797C84.5757 376.047 72.9651 376.046 63.8711 371.636C55.8648 367.753 49.2232 361.533 44.8242 353.798C39.8279 345.012 39.0679 333.426 37.5479 310.255L22.291 77.6914C24.5205 94.4761 39.569 107.441 65.9092 107.441H256.183C282.523 107.441 297.57 94.4761 299.8 77.6914L284.544 310.255Z" fill="url(#paint3_linear_214_2)"/>
<path d="M30.5898 102.876L30.5937 102.933C31.8484 121.403 47.1972 135.744 65.71 135.744H256.07C274.515 135.744 289.819 121.482 291.118 103.084L291.12 103.061L291.122 103.038L293.738 71.207L300 72L298 103.5L298.001 103.501C296.406 126.089 278.714 143.744 256.07 143.744H65.71C43.0079 143.744 25.5668 126.142 24 103.5L22 72C22 72 22 80 24.372 85.5C25.7342 88.6588 28.4493 92.5 28.4493 92.5L30.5898 102.876Z" fill="url(#paint4_linear_214_2)" fill-opacity="0.15"/>
<path d="M183.682 126.64V121.96C183.682 121.712 183.77 121.498 183.946 121.318C184.126 121.138 184.338 121.048 184.582 121.048C184.826 121.048 185.036 121.132 185.212 121.3C185.392 121.468 185.482 121.666 185.482 121.894V122.296L185.296 122.056H185.524C185.76 121.712 186.072 121.44 186.46 121.24C186.852 121.036 187.282 120.934 187.75 120.934C188.45 120.934 189.002 121.14 189.406 121.552C189.814 121.964 190.018 122.514 190.018 123.202V126.64C190.018 126.904 189.926 127.13 189.742 127.318C189.558 127.502 189.338 127.594 189.082 127.594C188.822 127.594 188.598 127.502 188.41 127.318C188.226 127.13 188.134 126.904 188.134 126.64V123.694C188.134 123.298 188.038 122.994 187.846 122.782C187.654 122.57 187.36 122.464 186.964 122.464C186.556 122.464 186.22 122.598 185.956 122.866C185.696 123.134 185.566 123.468 185.566 123.868V126.64C185.566 126.904 185.472 127.13 185.284 127.318C185.1 127.502 184.88 127.594 184.624 127.594C184.368 127.594 184.146 127.502 183.958 127.318C183.774 127.13 183.682 126.904 183.682 126.64Z" fill="#A9A9A9"/>
<path d="M181.58 127.594C181.32 127.594 181.096 127.5 180.908 127.312C180.724 127.124 180.632 126.898 180.632 126.634V122.002C180.632 121.742 180.724 121.518 180.908 121.33C181.096 121.142 181.32 121.048 181.58 121.048C181.836 121.048 182.056 121.142 182.24 121.33C182.424 121.518 182.516 121.742 182.516 122.002V126.634C182.516 126.898 182.424 127.124 182.24 127.312C182.056 127.5 181.836 127.594 181.58 127.594ZM181.586 120.124C181.286 120.124 181.028 120.02 180.812 119.812C180.6 119.604 180.494 119.35 180.494 119.05C180.494 118.75 180.6 118.5 180.812 118.3C181.028 118.1 181.286 118 181.586 118C181.894 118 182.148 118.1 182.348 118.3C182.552 118.5 182.654 118.752 182.654 119.056C182.654 119.352 182.552 119.604 182.348 119.812C182.148 120.02 181.894 120.124 181.586 120.124Z" fill="#A9A9A9"/>
<path d="M176.842 127.702C176.378 127.702 175.966 127.61 175.606 127.426C175.246 127.238 174.962 127.004 174.754 126.724H174.304L174.724 126.274V126.808C174.724 127.016 174.64 127.206 174.472 127.378C174.304 127.55 174.086 127.636 173.818 127.636C173.558 127.636 173.338 127.542 173.158 127.354C172.982 127.166 172.894 126.938 172.894 126.67V119.548C172.894 119.288 172.986 119.066 173.17 118.882C173.358 118.694 173.58 118.6 173.836 118.6C174.092 118.6 174.312 118.694 174.496 118.882C174.684 119.066 174.778 119.288 174.778 119.548V121.96H174.82C175.016 121.676 175.298 121.434 175.666 121.234C176.034 121.034 176.454 120.934 176.926 120.934C177.754 120.934 178.456 121.242 179.032 121.858C179.612 122.47 179.902 123.288 179.902 124.312C179.902 125.316 179.608 126.132 179.02 126.76C178.436 127.388 177.71 127.702 176.842 127.702ZM176.362 126.142C176.862 126.142 177.262 125.974 177.562 125.638C177.862 125.298 178.012 124.858 178.012 124.318C178.012 123.782 177.86 123.346 177.556 123.01C177.256 122.67 176.858 122.5 176.362 122.5C175.882 122.5 175.488 122.668 175.18 123.004C174.872 123.34 174.718 123.782 174.718 124.33C174.718 124.87 174.868 125.308 175.168 125.644C175.472 125.976 175.87 126.142 176.362 126.142Z" fill="#A9A9A9"/>
<path d="M169.037 127.702C167.957 127.702 167.095 127.39 166.451 126.766C165.811 126.142 165.491 125.328 165.491 124.324C165.491 123.384 165.803 122.584 166.427 121.924C167.051 121.264 167.893 120.934 168.953 120.934C169.889 120.934 170.659 121.224 171.263 121.804C171.871 122.384 172.175 123.074 172.175 123.874V123.922C172.175 124.178 172.091 124.384 171.923 124.54C171.759 124.692 171.527 124.768 171.227 124.768H166.445V123.766H170.459V123.76C170.431 123.364 170.285 123.036 170.021 122.776C169.757 122.516 169.399 122.386 168.947 122.386C168.471 122.386 168.079 122.554 167.771 122.89C167.467 123.222 167.315 123.69 167.315 124.294C167.315 124.934 167.485 125.424 167.825 125.764C168.165 126.104 168.617 126.274 169.181 126.274C169.397 126.274 169.581 126.254 169.733 126.214C169.889 126.174 170.029 126.12 170.153 126.052C170.281 125.98 170.409 125.89 170.537 125.782C170.685 125.662 170.855 125.598 171.047 125.59C171.243 125.578 171.413 125.636 171.557 125.764C171.705 125.884 171.783 126.042 171.791 126.238C171.799 126.434 171.727 126.616 171.575 126.784C171.403 126.976 171.197 127.138 170.957 127.27C170.721 127.402 170.451 127.506 170.147 127.582C169.847 127.662 169.477 127.702 169.037 127.702Z" fill="#A9A9A9"/>
<path d="M163.856 127.594C163.6 127.594 163.378 127.502 163.19 127.318C163.006 127.13 162.914 126.906 162.914 126.646V119.548C162.914 119.288 163.006 119.066 163.19 118.882C163.378 118.694 163.6 118.6 163.856 118.6C164.112 118.6 164.332 118.694 164.516 118.882C164.704 119.066 164.798 119.288 164.798 119.548V126.646C164.798 126.906 164.704 127.13 164.516 127.318C164.332 127.502 164.112 127.594 163.856 127.594Z" fill="#A9A9A9"/>
<path d="M159.491 127.708C158.431 127.708 157.579 127.39 156.935 126.754C156.291 126.114 155.969 125.306 155.969 124.33C155.969 123.346 156.289 122.534 156.929 121.894C157.569 121.254 158.439 120.934 159.539 120.934C159.939 120.934 160.285 120.978 160.577 121.066C160.873 121.154 161.133 121.274 161.357 121.426C161.585 121.574 161.761 121.736 161.885 121.912C162.013 122.1 162.061 122.3 162.029 122.512C162.001 122.72 161.905 122.884 161.741 123.004C161.577 123.128 161.401 123.184 161.213 123.172C161.025 123.16 160.847 123.092 160.679 122.968C160.583 122.884 160.485 122.81 160.385 122.746C160.289 122.682 160.171 122.63 160.031 122.59C159.895 122.546 159.727 122.524 159.527 122.524C159.039 122.524 158.639 122.692 158.327 123.028C158.015 123.36 157.859 123.792 157.859 124.324C157.859 124.864 158.021 125.296 158.345 125.62C158.669 125.944 159.061 126.106 159.521 126.106C159.729 126.106 159.907 126.084 160.055 126.04C160.203 125.996 160.321 125.944 160.409 125.884C160.501 125.824 160.595 125.75 160.691 125.662C160.859 125.522 161.033 125.436 161.213 125.404C161.393 125.372 161.571 125.406 161.747 125.506C161.947 125.618 162.077 125.782 162.137 125.998C162.197 126.214 162.169 126.426 162.053 126.634C161.957 126.798 161.791 126.964 161.555 127.132C161.323 127.296 161.035 127.432 160.691 127.54C160.351 127.652 159.951 127.708 159.491 127.708Z" fill="#A9A9A9"/>
<path d="M151.771 130.216C151.447 130.216 151.203 130.086 151.039 129.826C150.875 129.57 150.869 129.286 151.021 128.974L152.143 126.652L152.149 127.504L149.779 122.332C149.615 121.988 149.625 121.69 149.809 121.438C149.993 121.182 150.233 121.054 150.529 121.054C150.721 121.054 150.893 121.11 151.045 121.222C151.201 121.334 151.313 121.472 151.381 121.636L152.551 124.516L152.851 125.326H152.893L153.211 124.492L154.405 121.618C154.469 121.462 154.575 121.33 154.723 121.222C154.875 121.11 155.039 121.054 155.215 121.054C155.531 121.054 155.773 121.182 155.941 121.438C156.109 121.69 156.119 121.974 155.971 122.29L152.623 129.634C152.539 129.814 152.421 129.956 152.269 130.06C152.121 130.164 151.955 130.216 151.771 130.216Z" fill="#A9A9A9"/>
<path d="M146.745 127.708C145.685 127.708 144.833 127.39 144.189 126.754C143.545 126.114 143.223 125.306 143.223 124.33C143.223 123.346 143.543 122.534 144.183 121.894C144.823 121.254 145.693 120.934 146.793 120.934C147.193 120.934 147.539 120.978 147.831 121.066C148.127 121.154 148.387 121.274 148.611 121.426C148.839 121.574 149.015 121.736 149.139 121.912C149.267 122.1 149.315 122.3 149.283 122.512C149.255 122.72 149.159 122.884 148.995 123.004C148.831 123.128 148.655 123.184 148.467 123.172C148.279 123.16 148.101 123.092 147.933 122.968C147.837 122.884 147.739 122.81 147.639 122.746C147.543 122.682 147.425 122.63 147.285 122.59C147.149 122.546 146.981 122.524 146.781 122.524C146.293 122.524 145.893 122.692 145.581 123.028C145.269 123.36 145.113 123.792 145.113 124.324C145.113 124.864 145.275 125.296 145.599 125.62C145.923 125.944 146.315 126.106 146.775 126.106C146.983 126.106 147.161 126.084 147.309 126.04C147.457 125.996 147.575 125.944 147.663 125.884C147.755 125.824 147.849 125.75 147.945 125.662C148.113 125.522 148.287 125.436 148.467 125.404C148.647 125.372 148.825 125.406 149.001 125.506C149.201 125.618 149.331 125.782 149.391 125.998C149.451 126.214 149.423 126.426 149.307 126.634C149.211 126.798 149.045 126.964 148.809 127.132C148.577 127.296 148.289 127.432 147.945 127.54C147.605 127.652 147.205 127.708 146.745 127.708Z" fill="#A9A9A9"/>
<path d="M139.811 127.702C138.731 127.702 137.869 127.39 137.225 126.766C136.585 126.142 136.265 125.328 136.265 124.324C136.265 123.384 136.577 122.584 137.201 121.924C137.825 121.264 138.667 120.934 139.727 120.934C140.663 120.934 141.433 121.224 142.037 121.804C142.645 122.384 142.949 123.074 142.949 123.874V123.922C142.949 124.178 142.865 124.384 142.697 124.54C142.533 124.692 142.301 124.768 142.001 124.768H137.219V123.766H141.233V123.76C141.205 123.364 141.059 123.036 140.795 122.776C140.531 122.516 140.173 122.386 139.721 122.386C139.245 122.386 138.853 122.554 138.545 122.89C138.241 123.222 138.089 123.69 138.089 124.294C138.089 124.934 138.259 125.424 138.599 125.764C138.939 126.104 139.391 126.274 139.955 126.274C140.171 126.274 140.355 126.254 140.507 126.214C140.663 126.174 140.803 126.12 140.927 126.052C141.055 125.98 141.183 125.89 141.311 125.782C141.459 125.662 141.629 125.598 141.821 125.59C142.017 125.578 142.187 125.636 142.331 125.764C142.479 125.884 142.557 126.042 142.565 126.238C142.573 126.434 142.501 126.616 142.349 126.784C142.177 126.976 141.971 127.138 141.731 127.27C141.495 127.402 141.225 127.506 140.921 127.582C140.621 127.662 140.251 127.702 139.811 127.702Z" fill="#A9A9A9"/>
<path d="M132.942 127.594C132.686 127.594 132.464 127.502 132.276 127.318C132.092 127.13 132 126.904 132 126.64V121.954C132 121.706 132.088 121.494 132.264 121.318C132.44 121.138 132.65 121.048 132.894 121.048C133.138 121.048 133.348 121.134 133.524 121.306C133.7 121.478 133.788 121.682 133.788 121.918V122.32L133.62 122.122H133.836C133.964 121.766 134.184 121.48 134.496 121.264C134.812 121.044 135.156 120.934 135.528 120.934C135.656 120.934 135.786 120.95 135.918 120.982C136.054 121.014 136.174 121.07 136.278 121.15C136.382 121.226 136.464 121.332 136.524 121.468C136.584 121.604 136.602 121.756 136.578 121.924C136.55 122.092 136.488 122.23 136.392 122.338C136.296 122.442 136.188 122.516 136.068 122.56C135.952 122.6 135.828 122.618 135.696 122.614C135.568 122.606 135.45 122.602 135.342 122.602C134.922 122.602 134.574 122.748 134.298 123.04C134.022 123.332 133.884 123.772 133.884 124.36V126.64C133.884 126.904 133.79 127.13 133.602 127.318C133.418 127.502 133.198 127.594 132.942 127.594Z" fill="#A9A9A9"/>
<path d="M284.544 310.255C283.024 333.426 282.263 345.012 277.267 353.798C272.868 361.533 266.227 367.753 258.221 371.636C249.127 376.046 237.516 376.047 214.295 376.047H107.797C84.5757 376.047 72.9651 376.046 63.8711 371.636C55.8648 367.753 49.2232 361.533 44.8242 353.798C39.8279 345.012 39.0679 333.426 37.5479 310.255L22.291 77.6914C24.5205 94.4761 39.6598 107 66 107H256.273C282.614 107 297.57 94.4761 299.8 77.6914L284.544 310.255Z" fill="url(#paint5_linear_214_2)"/>
<path d="M183.682 126.64V121.96C183.682 121.712 183.77 121.498 183.946 121.318C184.126 121.138 184.338 121.048 184.582 121.048C184.826 121.048 185.036 121.132 185.212 121.3C185.392 121.468 185.482 121.666 185.482 121.894V122.296L185.296 122.056H185.524C185.76 121.712 186.072 121.44 186.46 121.24C186.852 121.036 187.282 120.934 187.75 120.934C188.45 120.934 189.002 121.14 189.406 121.552C189.814 121.964 190.018 122.514 190.018 123.202V126.64C190.018 126.904 189.926 127.13 189.742 127.318C189.558 127.502 189.338 127.594 189.082 127.594C188.822 127.594 188.598 127.502 188.41 127.318C188.226 127.13 188.134 126.904 188.134 126.64V123.694C188.134 123.298 188.038 122.994 187.846 122.782C187.654 122.57 187.36 122.464 186.964 122.464C186.556 122.464 186.22 122.598 185.956 122.866C185.696 123.134 185.566 123.468 185.566 123.868V126.64C185.566 126.904 185.472 127.13 185.284 127.318C185.1 127.502 184.88 127.594 184.624 127.594C184.368 127.594 184.146 127.502 183.958 127.318C183.774 127.13 183.682 126.904 183.682 126.64Z" fill="#A9A9A9"/>
<path d="M181.58 127.594C181.32 127.594 181.096 127.5 180.908 127.312C180.724 127.124 180.632 126.898 180.632 126.634V122.002C180.632 121.742 180.724 121.518 180.908 121.33C181.096 121.142 181.32 121.048 181.58 121.048C181.836 121.048 182.056 121.142 182.24 121.33C182.424 121.518 182.516 121.742 182.516 122.002V126.634C182.516 126.898 182.424 127.124 182.24 127.312C182.056 127.5 181.836 127.594 181.58 127.594ZM181.586 120.124C181.286 120.124 181.028 120.02 180.812 119.812C180.6 119.604 180.494 119.35 180.494 119.05C180.494 118.75 180.6 118.5 180.812 118.3C181.028 118.1 181.286 118 181.586 118C181.894 118 182.148 118.1 182.348 118.3C182.552 118.5 182.654 118.752 182.654 119.056C182.654 119.352 182.552 119.604 182.348 119.812C182.148 120.02 181.894 120.124 181.586 120.124Z" fill="#A9A9A9"/>
<path d="M176.842 127.702C176.378 127.702 175.966 127.61 175.606 127.426C175.246 127.238 174.962 127.004 174.754 126.724H174.304L174.724 126.274V126.808C174.724 127.016 174.64 127.206 174.472 127.378C174.304 127.55 174.086 127.636 173.818 127.636C173.558 127.636 173.338 127.542 173.158 127.354C172.982 127.166 172.894 126.938 172.894 126.67V119.548C172.894 119.288 172.986 119.066 173.17 118.882C173.358 118.694 173.58 118.6 173.836 118.6C174.092 118.6 174.312 118.694 174.496 118.882C174.684 119.066 174.778 119.288 174.778 119.548V121.96H174.82C175.016 121.676 175.298 121.434 175.666 121.234C176.034 121.034 176.454 120.934 176.926 120.934C177.754 120.934 178.456 121.242 179.032 121.858C179.612 122.47 179.902 123.288 179.902 124.312C179.902 125.316 179.608 126.132 179.02 126.76C178.436 127.388 177.71 127.702 176.842 127.702ZM176.362 126.142C176.862 126.142 177.262 125.974 177.562 125.638C177.862 125.298 178.012 124.858 178.012 124.318C178.012 123.782 177.86 123.346 177.556 123.01C177.256 122.67 176.858 122.5 176.362 122.5C175.882 122.5 175.488 122.668 175.18 123.004C174.872 123.34 174.718 123.782 174.718 124.33C174.718 124.87 174.868 125.308 175.168 125.644C175.472 125.976 175.87 126.142 176.362 126.142Z" fill="#A9A9A9"/>
<path d="M169.037 127.702C167.957 127.702 167.095 127.39 166.451 126.766C165.811 126.142 165.491 125.328 165.491 124.324C165.491 123.384 165.803 122.584 166.427 121.924C167.051 121.264 167.893 120.934 168.953 120.934C169.889 120.934 170.659 121.224 171.263 121.804C171.871 122.384 172.175 123.074 172.175 123.874V123.922C172.175 124.178 172.091 124.384 171.923 124.54C171.759 124.692 171.527 124.768 171.227 124.768H166.445V123.766H170.459V123.76C170.431 123.364 170.285 123.036 170.021 122.776C169.757 122.516 169.399 122.386 168.947 122.386C168.471 122.386 168.079 122.554 167.771 122.89C167.467 123.222 167.315 123.69 167.315 124.294C167.315 124.934 167.485 125.424 167.825 125.764C168.165 126.104 168.617 126.274 169.181 126.274C169.397 126.274 169.581 126.254 169.733 126.214C169.889 126.174 170.029 126.12 170.153 126.052C170.281 125.98 170.409 125.89 170.537 125.782C170.685 125.662 170.855 125.598 171.047 125.59C171.243 125.578 171.413 125.636 171.557 125.764C171.705 125.884 171.783 126.042 171.791 126.238C171.799 126.434 171.727 126.616 171.575 126.784C171.403 126.976 171.197 127.138 170.957 127.27C170.721 127.402 170.451 127.506 170.147 127.582C169.847 127.662 169.477 127.702 169.037 127.702Z" fill="#A9A9A9"/>
<path d="M163.856 127.594C163.6 127.594 163.378 127.502 163.19 127.318C163.006 127.13 162.914 126.906 162.914 126.646V119.548C162.914 119.288 163.006 119.066 163.19 118.882C163.378 118.694 163.6 118.6 163.856 118.6C164.112 118.6 164.332 118.694 164.516 118.882C164.704 119.066 164.798 119.288 164.798 119.548V126.646C164.798 126.906 164.704 127.13 164.516 127.318C164.332 127.502 164.112 127.594 163.856 127.594Z" fill="#A9A9A9"/>
<path d="M159.491 127.708C158.431 127.708 157.579 127.39 156.935 126.754C156.291 126.114 155.969 125.306 155.969 124.33C155.969 123.346 156.289 122.534 156.929 121.894C157.569 121.254 158.439 120.934 159.539 120.934C159.939 120.934 160.285 120.978 160.577 121.066C160.873 121.154 161.133 121.274 161.357 121.426C161.585 121.574 161.761 121.736 161.885 121.912C162.013 122.1 162.061 122.3 162.029 122.512C162.001 122.72 161.905 122.884 161.741 123.004C161.577 123.128 161.401 123.184 161.213 123.172C161.025 123.16 160.847 123.092 160.679 122.968C160.583 122.884 160.485 122.81 160.385 122.746C160.289 122.682 160.171 122.63 160.031 122.59C159.895 122.546 159.727 122.524 159.527 122.524C159.039 122.524 158.639 122.692 158.327 123.028C158.015 123.36 157.859 123.792 157.859 124.324C157.859 124.864 158.021 125.296 158.345 125.62C158.669 125.944 159.061 126.106 159.521 126.106C159.729 126.106 159.907 126.084 160.055 126.04C160.203 125.996 160.321 125.944 160.409 125.884C160.501 125.824 160.595 125.75 160.691 125.662C160.859 125.522 161.033 125.436 161.213 125.404C161.393 125.372 161.571 125.406 161.747 125.506C161.947 125.618 162.077 125.782 162.137 125.998C162.197 126.214 162.169 126.426 162.053 126.634C161.957 126.798 161.791 126.964 161.555 127.132C161.323 127.296 161.035 127.432 160.691 127.54C160.351 127.652 159.951 127.708 159.491 127.708Z" fill="#A9A9A9"/>
<path d="M151.771 130.216C151.447 130.216 151.203 130.086 151.039 129.826C150.875 129.57 150.869 129.286 151.021 128.974L152.143 126.652L152.149 127.504L149.779 122.332C149.615 121.988 149.625 121.69 149.809 121.438C149.993 121.182 150.233 121.054 150.529 121.054C150.721 121.054 150.893 121.11 151.045 121.222C151.201 121.334 151.313 121.472 151.381 121.636L152.551 124.516L152.851 125.326H152.893L153.211 124.492L154.405 121.618C154.469 121.462 154.575 121.33 154.723 121.222C154.875 121.11 155.039 121.054 155.215 121.054C155.531 121.054 155.773 121.182 155.941 121.438C156.109 121.69 156.119 121.974 155.971 122.29L152.623 129.634C152.539 129.814 152.421 129.956 152.269 130.06C152.121 130.164 151.955 130.216 151.771 130.216Z" fill="#A9A9A9"/>
<path d="M146.745 127.708C145.685 127.708 144.833 127.39 144.189 126.754C143.545 126.114 143.223 125.306 143.223 124.33C143.223 123.346 143.543 122.534 144.183 121.894C144.823 121.254 145.693 120.934 146.793 120.934C147.193 120.934 147.539 120.978 147.831 121.066C148.127 121.154 148.387 121.274 148.611 121.426C148.839 121.574 149.015 121.736 149.139 121.912C149.267 122.1 149.315 122.3 149.283 122.512C149.255 122.72 149.159 122.884 148.995 123.004C148.831 123.128 148.655 123.184 148.467 123.172C148.279 123.16 148.101 123.092 147.933 122.968C147.837 122.884 147.739 122.81 147.639 122.746C147.543 122.682 147.425 122.63 147.285 122.59C147.149 122.546 146.981 122.524 146.781 122.524C146.293 122.524 145.893 122.692 145.581 123.028C145.269 123.36 145.113 123.792 145.113 124.324C145.113 124.864 145.275 125.296 145.599 125.62C145.923 125.944 146.315 126.106 146.775 126.106C146.983 126.106 147.161 126.084 147.309 126.04C147.457 125.996 147.575 125.944 147.663 125.884C147.755 125.824 147.849 125.75 147.945 125.662C148.113 125.522 148.287 125.436 148.467 125.404C148.647 125.372 148.825 125.406 149.001 125.506C149.201 125.618 149.331 125.782 149.391 125.998C149.451 126.214 149.423 126.426 149.307 126.634C149.211 126.798 149.045 126.964 148.809 127.132C148.577 127.296 148.289 127.432 147.945 127.54C147.605 127.652 147.205 127.708 146.745 127.708Z" fill="#A9A9A9"/>
<path d="M139.811 127.702C138.731 127.702 137.869 127.39 137.225 126.766C136.585 126.142 136.265 125.328 136.265 124.324C136.265 123.384 136.577 122.584 137.201 121.924C137.825 121.264 138.667 120.934 139.727 120.934C140.663 120.934 141.433 121.224 142.037 121.804C142.645 122.384 142.949 123.074 142.949 123.874V123.922C142.949 124.178 142.865 124.384 142.697 124.54C142.533 124.692 142.301 124.768 142.001 124.768H137.219V123.766H141.233V123.76C141.205 123.364 141.059 123.036 140.795 122.776C140.531 122.516 140.173 122.386 139.721 122.386C139.245 122.386 138.853 122.554 138.545 122.89C138.241 123.222 138.089 123.69 138.089 124.294C138.089 124.934 138.259 125.424 138.599 125.764C138.939 126.104 139.391 126.274 139.955 126.274C140.171 126.274 140.355 126.254 140.507 126.214C140.663 126.174 140.803 126.12 140.927 126.052C141.055 125.98 141.183 125.89 141.311 125.782C141.459 125.662 141.629 125.598 141.821 125.59C142.017 125.578 142.187 125.636 142.331 125.764C142.479 125.884 142.557 126.042 142.565 126.238C142.573 126.434 142.501 126.616 142.349 126.784C142.177 126.976 141.971 127.138 141.731 127.27C141.495 127.402 141.225 127.506 140.921 127.582C140.621 127.662 140.251 127.702 139.811 127.702Z" fill="#A9A9A9"/>
<path d="M132.942 127.594C132.686 127.594 132.464 127.502 132.276 127.318C132.092 127.13 132 126.904 132 126.64V121.954C132 121.706 132.088 121.494 132.264 121.318C132.44 121.138 132.65 121.048 132.894 121.048C133.138 121.048 133.348 121.134 133.524 121.306C133.7 121.478 133.788 121.682 133.788 121.918V122.32L133.62 122.122H133.836C133.964 121.766 134.184 121.48 134.496 121.264C134.812 121.044 135.156 120.934 135.528 120.934C135.656 120.934 135.786 120.95 135.918 120.982C136.054 121.014 136.174 121.07 136.278 121.15C136.382 121.226 136.464 121.332 136.524 121.468C136.584 121.604 136.602 121.756 136.578 121.924C136.55 122.092 136.488 122.23 136.392 122.338C136.296 122.442 136.188 122.516 136.068 122.56C135.952 122.6 135.828 122.618 135.696 122.614C135.568 122.606 135.45 122.602 135.342 122.602C134.922 122.602 134.574 122.748 134.298 123.04C134.022 123.332 133.884 123.772 133.884 124.36V126.64C133.884 126.904 133.79 127.13 133.602 127.318C133.418 127.502 133.198 127.594 132.942 127.594Z" fill="#A9A9A9"/>
<path d="M30.5898 102.876L30.5937 102.933C31.8484 121.403 47.1972 135.744 65.71 135.744H256.07C274.515 135.744 289.819 121.482 291.118 103.084L291.12 103.061L291.122 103.038L293.738 71.207L300 72L298 103.5L298.001 103.501C296.406 126.089 278.714 143.744 256.07 143.744H65.71C43.0079 143.744 25.5668 126.142 24 103.5L22 72C22 72 22 80 24.372 85.5C25.7342 88.6588 28.4493 92.5 28.4493 92.5L30.5898 102.876Z" fill="url(#paint6_linear_214_2)" fill-opacity="0.15"/>
<defs>
<linearGradient id="paint0_linear_214_2" x1="161.046" y1="23.8661" x2="161.046" y2="376.049" gradientUnits="userSpaceOnUse">
<stop stop-color="#E0E0E0"/>
<stop offset="1" stop-color="#BABABA"/>
</linearGradient>
<linearGradient id="paint1_linear_214_2" x1="161.045" y1="376.047" x2="161.045" y2="23.8655" gradientUnits="userSpaceOnUse">
<stop stop-color="#CECECE"/>
<stop offset="1" stop-color="#E9E9E9"/>
</linearGradient>
<linearGradient id="paint2_linear_214_2" x1="161.045" y1="42.7324" x2="161.045" y2="376.047" gradientUnits="userSpaceOnUse">
<stop stop-color="#E5E5E5"/>
<stop offset="1" stop-color="#E5E5E5"/>
</linearGradient>
<linearGradient id="paint3_linear_214_2" x1="292.275" y1="186.075" x2="40.7287" y2="190.57" gradientUnits="userSpaceOnUse">
<stop stop-color="#CDCDCD"/>
<stop offset="0.301058" stop-color="#DEDEDE"/>
<stop offset="0.730732" stop-color="#E6E6E6"/>
<stop offset="0.905286" stop-color="#F0F0F0"/>
<stop offset="1" stop-color="#D9D9D9"/>
</linearGradient>
<linearGradient id="paint4_linear_214_2" x1="22" y1="107.476" x2="300" y2="107.476" gradientUnits="userSpaceOnUse">
<stop stop-color="#DFDFDF"/>
<stop offset="0.235519" stop-color="#A8A4A4"/>
<stop offset="0.788426" stop-color="#999999"/>
<stop offset="0.87016" stop-color="#CECECE"/>
<stop offset="1" stop-color="#CECECE"/>
</linearGradient>
<linearGradient id="paint5_linear_214_2" x1="292.275" y1="186.075" x2="40.7287" y2="190.57" gradientUnits="userSpaceOnUse">
<stop stop-color="#CDCDCD"/>
<stop offset="0.301058" stop-color="#DEDEDE"/>
<stop offset="0.730732" stop-color="#E6E6E6"/>
<stop offset="0.905286" stop-color="#F0F0F0"/>
<stop offset="1" stop-color="#D9D9D9"/>
</linearGradient>
<linearGradient id="paint6_linear_214_2" x1="22" y1="107.476" x2="300" y2="107.476" gradientUnits="userSpaceOnUse">
<stop stop-color="#DFDFDF"/>
<stop offset="0.235519" stop-color="#A8A4A4"/>
<stop offset="0.788426" stop-color="#999999"/>
<stop offset="0.87016" stop-color="#CECECE"/>
<stop offset="1" stop-color="#CECECE"/>
</linearGradient>
</defs>
</svg>
