<svg width="24" height="24" viewBox="0 0 24 24" fill="none" xmlns="http://www.w3.org/2000/svg">
<path d="M8 12C8 10.9391 8.42143 9.92172 9.17157 9.17157C9.92172 8.42143 10.9391 8 12 8C13.0609 8 14.0783 8.42143 14.8284 9.17157C15.5786 9.92172 16 10.9391 16 12C16 13.0609 15.5786 14.0783 14.8284 14.8284C14.0783 15.5786 13.0609 16 12 16C10.9391 16 9.92172 15.5786 9.17157 14.8284C8.42143 14.0783 8 13.0609 8 12ZM12 10C11.4696 10 10.9609 10.2107 10.5858 10.5858C10.2107 10.9609 10 11.4696 10 12C10 12.5304 10.2107 13.0391 10.5858 13.4142C10.9609 13.7893 11.4696 14 12 14C12.5304 14 13.0391 13.7893 13.4142 13.4142C13.7893 13.0391 14 12.5304 14 12C14 11.4696 13.7893 10.9609 13.4142 10.5858C13.0391 10.2107 12.5304 10 12 10Z" fill="black"/>
<path fill-rule="evenodd" clip-rule="evenodd" d="M10 2.00024C11.2376 1.28571 12.7624 1.28571 14 2.00024L19.6602 5.26782C20.8977 5.98236 21.6602 7.30364 21.6602 8.73266V15.2678C21.6601 16.6968 20.8977 18.0182 19.6602 18.7327L14 22.0002C12.7624 22.7147 11.2376 22.7147 10 22.0002L4.33984 18.7327C3.10231 18.0182 2.33993 16.6968 2.33984 15.2678V8.73266C2.33984 7.30364 3.1023 5.98236 4.33984 5.26782L10 2.00024ZM13 3.73266C12.3812 3.37539 11.6188 3.37539 11 3.73266L5.33984 7.00024C4.7211 7.35752 4.33984 8.01817 4.33984 8.73266V15.2678C4.33993 15.9823 4.72111 16.643 5.33984 17.0002L11 20.2678C11.6188 20.625 12.3812 20.625 13 20.2678L18.6602 17.0002C19.2789 16.643 19.6601 15.9823 19.6602 15.2678V8.73266C19.6602 8.01817 19.2789 7.35752 18.6602 7.00024L13 3.73266Z" fill="black"/>
</svg>
