<svg width="24" height="24" viewBox="0 0 24 24" fill="none" xmlns="http://www.w3.org/2000/svg">
<path d="M19 7C19.5523 7 20 7.44772 20 8V17.2002C20 18.0237 20.001 18.7016 19.9561 19.252C19.9101 19.814 19.8117 20.3311 19.5645 20.8164C19.181 21.5689 18.5689 22.181 17.8164 22.5645C17.3311 22.8117 16.814 22.9101 16.252 22.9561C15.7016 23.001 15.0237 23 14.2002 23H9.7998C8.97631 23 8.29843 23.001 7.74805 22.9561C7.18599 22.9101 6.6689 22.8117 6.18359 22.5645C5.43109 22.181 4.81902 21.5689 4.43555 20.8164C4.18827 20.3311 4.08987 19.814 4.04395 19.252C3.99898 18.7016 4 18.0237 4 17.2002V8C4 7.44772 4.44772 7 5 7C5.55228 7 6 7.44772 6 8V17.2002C6 18.0566 6.00035 18.6388 6.03711 19.0889C6.07293 19.5273 6.13808 19.7518 6.21777 19.9082C6.40951 20.2845 6.71554 20.5905 7.0918 20.7822C7.2482 20.8619 7.47272 20.9271 7.91113 20.9629C8.36117 20.9997 8.94341 21 9.7998 21H14.2002C15.0566 21 15.6388 20.9997 16.0889 20.9629C16.5273 20.9271 16.7518 20.8619 16.9082 20.7822C17.2845 20.5905 17.5905 20.2845 17.7822 19.9082C17.8619 19.7518 17.9271 19.5273 17.9629 19.0889C17.9997 18.6388 18 18.0566 18 17.2002V8C18 7.44772 18.4477 7 19 7Z" fill="black"/>
<path d="M8.5 10C9.05228 10 9.5 10.4477 9.5 11V18C9.5 18.5523 9.05228 19 8.5 19C7.94772 19 7.5 18.5523 7.5 18V11C7.5 10.4477 7.94772 10 8.5 10Z" fill="black"/>
<path d="M12 10C12.5523 10 13 10.4477 13 11V18C13 18.5523 12.5523 19 12 19C11.4477 19 11 18.5523 11 18V11C11 10.4477 11.4477 10 12 10Z" fill="black"/>
<path d="M15.5 10C16.0523 10 16.5 10.4477 16.5 11V18C16.5 18.5523 16.0523 19 15.5 19C14.9477 19 14.5 18.5523 14.5 18V11C14.5 10.4477 14.9477 10 15.5 10Z" fill="black"/>
<path d="M21 4C21.5523 4 22 4.44772 22 5C22 5.55228 21.5523 6 21 6H3C2.44772 6 2 5.55228 2 5C2 4.44772 2.44772 4 3 4H21Z" fill="black"/>
<path d="M14 1C14.5523 1 15 1.44772 15 2C15 2.55228 14.5523 3 14 3H10C9.44772 3 9 2.55228 9 2C9 1.44772 9.44772 1 10 1H14Z" fill="black"/>
</svg>
