<svg width="24" height="24" viewBox="0 0 24 24" fill="none" xmlns="http://www.w3.org/2000/svg">
<path d="M16.8889 5.59512L4.14671 18.3383C3.9516 18.5334 3.9519 18.85 4.14671 19.0453C4.34199 19.2403 4.65856 19.2405 4.85374 19.0453L17.5959 6.30215L19.011 7.71719L6.2678 20.4604C5.29161 21.4361 3.70886 21.4361 2.73265 20.4604C1.75648 19.484 1.75639 17.9005 2.73265 16.9242L15.4748 4.18106L16.8889 5.59512Z" fill="black"/>
<path d="M21.0002 19.0004C21.5524 19.0005 22.0002 19.4482 22.0002 20.0004C22 20.5524 21.5523 21.0003 21.0002 21.0004H9.50023C8.94807 21.0004 8.50044 20.5525 8.50023 20.0004C8.50023 19.4481 8.94794 19.0004 9.50023 19.0004H21.0002Z" fill="black"/>
<path d="M16.925 2.73184C17.9012 1.75607 19.484 1.75611 20.4602 2.73184C21.4361 3.70807 21.4361 5.29172 20.4602 6.26797L19.718 7.01016L18.303 5.59512L19.0461 4.85294C19.2409 4.65773 19.241 4.34106 19.0461 4.1459C18.851 3.95122 18.5342 3.95118 18.3391 4.1459L17.5959 4.88809L16.1819 3.47403L16.925 2.73184Z" fill="black"/>
</svg>
