<svg width="96" height="40" viewBox="0 0 96 40" fill="none" xmlns="http://www.w3.org/2000/svg">
<path d="M12 28C13.1046 28 14 28.8954 14 30C14 31.1046 13.1046 32 12 32C10.8955 31.9999 10 31.1045 10 30C10 28.8955 10.8955 28.0001 12 28Z" fill="#80808066"/>
<path d="M24 28C25.1046 28 26 28.8954 26 30C26 31.1046 25.1046 32 24 32C22.8955 31.9999 22 31.1045 22 30C22 28.8955 22.8955 28.0001 24 28Z" fill="#80808066"/>
<path d="M36 28C37.1046 28 38 28.8954 38 30C38 31.1046 37.1046 32 36 32C34.8955 31.9999 34 31.1045 34 30C34 28.8955 34.8955 28.0001 36 28Z" fill="#80808066"/>
<path d="M48 28C49.1046 28 50 28.8954 50 30C50 31.1046 49.1046 32 48 32C46.8955 31.9999 46 31.1045 46 30C46 28.8955 46.8955 28.0001 48 28Z" fill="#80808066"/>
<path d="M60 28C61.1046 28 62 28.8954 62 30C62 31.1046 61.1046 32 60 32C58.8955 31.9999 58 31.1045 58 30C58 28.8955 58.8955 28.0001 60 28Z" fill="#80808066"/>
<path d="M72 28C73.1046 28 74 28.8954 74 30C74 31.1046 73.1046 32 72 32C70.8955 31.9999 70 31.1045 70 30C70 28.8955 70.8955 28.0001 72 28Z" fill="#80808066"/>
<path d="M12 18C13.1046 18 14 18.8954 14 20C14 21.1046 13.1046 22 12 22C10.8955 21.9999 10 21.1045 10 20C10 18.8955 10.8955 18.0001 12 18Z" fill="#80808066"/>
<path d="M24 18C25.1046 18 26 18.8954 26 20C26 21.1046 25.1046 22 24 22C22.8955 21.9999 22 21.1045 22 20C22 18.8955 22.8955 18.0001 24 18Z" fill="#80808066"/>
<path d="M36 18C37.1046 18 38 18.8954 38 20C38 21.1046 37.1046 22 36 22C34.8955 21.9999 34 21.1045 34 20C34 18.8955 34.8955 18.0001 36 18Z" fill="#80808066"/>
<path d="M48 18C49.1046 18 50 18.8954 50 20C50 21.1046 49.1046 22 48 22C46.8955 21.9999 46 21.1045 46 20C46 18.8955 46.8955 18.0001 48 18Z" fill="#80808066"/>
<path d="M60 18C61.1046 18 62 18.8954 62 20C62 21.1046 61.1046 22 60 22C58.8955 21.9999 58 21.1045 58 20C58 18.8955 58.8955 18.0001 60 18Z" fill="#80808066"/>
<path d="M72 18C73.1046 18 74 18.8954 74 20C74 21.1046 73.1046 22 72 22C70.8955 21.9999 70 21.1045 70 20C70 18.8955 70.8955 18.0001 72 18Z" fill="#80808066"/>
<path d="M12 8C13.1046 8 14 8.89543 14 10C14 11.1046 13.1046 12 12 12C10.8955 11.9999 10 11.1045 10 10C10 8.89551 10.8955 8.00013 12 8Z" fill="#80808066"/>
<path d="M24 8C25.1046 8 26 8.89543 26 10C26 11.1046 25.1046 12 24 12C22.8955 11.9999 22 11.1045 22 10C22 8.89551 22.8955 8.00013 24 8Z" fill="#80808066"/>
<path d="M36 8C37.1046 8 38 8.89543 38 10C38 11.1046 37.1046 12 36 12C34.8955 11.9999 34 11.1045 34 10C34 8.89551 34.8955 8.00013 36 8Z" fill="#80808066"/>
<path d="M48 8C49.1046 8 50 8.89543 50 10C50 11.1046 49.1046 12 48 12C46.8955 11.9999 46 11.1045 46 10C46 8.89551 46.8955 8.00013 48 8Z" fill="#80808066"/>
<path d="M60 8C61.1046 8 62 8.89543 62 10C62 11.1046 61.1046 12 60 12C58.8955 11.9999 58 11.1045 58 10C58 8.89551 58.8955 8.00013 60 8Z" fill="#80808066"/>
<path d="M72 8C73.1046 8 74 8.89543 74 10C74 11.1046 73.1046 12 72 12C70.8955 11.9999 70 11.1045 70 10C70 8.89551 70.8955 8.00013 72 8Z" fill="#80808066"/>
<path d="M84 28C85.1046 28 86 28.8954 86 30C86 31.1046 85.1046 32 84 32C82.8955 31.9999 82 31.1045 82 30C82 28.8955 82.8955 28.0001 84 28Z" fill="#80808066"/>
<path d="M84 18C85.1046 18 86 18.8954 86 20C86 21.1046 85.1046 22 84 22C82.8955 21.9999 82 21.1045 82 20C82 18.8955 82.8955 18.0001 84 18Z" fill="#80808066"/>
<path d="M84 8C85.1046 8 86 8.89543 86 10C86 11.1046 85.1046 12 84 12C82.8955 11.9999 82 11.1045 82 10C82 8.89551 82.8955 8.00013 84 8Z" fill="#80808066"/>
</svg>
