<svg width="96" height="40" viewBox="0 0 96 40" fill="none" xmlns="http://www.w3.org/2000/svg">
<path d="M15.6965 25.2238C15.9945 24.9259 16.4797 24.9258 16.7776 25.2238C17.0742 25.5218 17.0749 26.0053 16.7776 26.3029L14.0784 29.0002L16.7776 31.6974L16.8743 31.8166C17.0694 32.1125 17.0376 32.5159 16.7776 32.7765C16.5169 33.0372 16.1118 33.0696 15.8157 32.8742L15.6965 32.7765L13.0003 30.0783L10.303 32.7765L10.1838 32.8742C9.8879 33.0697 9.48464 33.0368 9.22389 32.7765C8.96331 32.5157 8.9306 32.1127 9.12623 31.8166L9.22389 31.6974L11.9212 29.0002L9.22389 26.3029C8.92612 26.0051 8.92645 25.5218 9.22389 25.2238C9.52183 24.9259 10.0051 24.9258 10.303 25.2238L13.0003 27.9211L15.6965 25.2238Z" fill="#CDCDCD"/>
<path d="M39.6965 25.2238C39.9945 24.9259 40.4797 24.9258 40.7776 25.2238C41.0742 25.5218 41.0749 26.0053 40.7776 26.3029L38.0784 29.0002L40.7776 31.6974L40.8743 31.8166C41.0694 32.1125 41.0376 32.5159 40.7776 32.7765C40.5169 33.0372 40.1118 33.0696 39.8157 32.8742L39.6965 32.7765L37.0003 30.0783L34.303 32.7765L34.1838 32.8742C33.8879 33.0697 33.4846 33.0368 33.2239 32.7765C32.9633 32.5157 32.9306 32.1127 33.1262 31.8166L33.2239 31.6974L35.9212 29.0002L33.2239 26.3029C32.9261 26.0051 32.9264 25.5218 33.2239 25.2238C33.5218 24.9259 34.0051 24.9258 34.303 25.2238L37.0003 27.9211L39.6965 25.2238Z" fill="#CDCDCD"/>
<path d="M63.6965 25.2238C63.9945 24.9259 64.4797 24.9258 64.7776 25.2238C65.0742 25.5218 65.0749 26.0053 64.7776 26.3029L62.0784 29.0002L64.7776 31.6974L64.8743 31.8166C65.0694 32.1125 65.0376 32.5159 64.7776 32.7765C64.5169 33.0372 64.1118 33.0696 63.8157 32.8742L63.6965 32.7765L61.0003 30.0783L58.303 32.7765L58.1838 32.8742C57.8879 33.0697 57.4846 33.0368 57.2239 32.7765C56.9633 32.5157 56.9306 32.1127 57.1262 31.8166L57.2239 31.6974L59.9212 29.0002L57.2239 26.3029C56.9261 26.0051 56.9264 25.5218 57.2239 25.2238C57.5218 24.9259 58.0051 24.9258 58.303 25.2238L61.0003 27.9211L63.6965 25.2238Z" fill="#CDCDCD"/>
<path d="M87.6965 25.2238C87.9945 24.9259 88.4797 24.9258 88.7776 25.2238C89.0742 25.5218 89.0749 26.0053 88.7776 26.3029L86.0784 29.0002L88.7776 31.6974L88.8743 31.8166C89.0694 32.1125 89.0376 32.5159 88.7776 32.7765C88.5169 33.0372 88.1118 33.0696 87.8157 32.8742L87.6965 32.7765L85.0003 30.0783L82.303 32.7765L82.1839 32.8742C81.8879 33.0697 81.4846 33.0368 81.2239 32.7765C80.9633 32.5157 80.9306 32.1127 81.1262 31.8166L81.2239 31.6974L83.9212 29.0002L81.2239 26.3029C80.9261 26.0051 80.9264 25.5218 81.2239 25.2238C81.5218 24.9259 82.0051 24.9258 82.303 25.2238L85.0003 27.9211L87.6965 25.2238Z" fill="#CDCDCD"/>
<path d="M15.6965 7.2238C15.9945 6.92589 16.4797 6.92585 16.7776 7.2238C17.0742 7.52179 17.0749 8.00533 16.7776 8.3029L14.0784 11.0002L16.7776 13.6974L16.8743 13.8166C17.0694 14.1125 17.0376 14.5159 16.7776 14.7765C16.5169 15.0372 16.1118 15.0696 15.8157 14.8742L15.6965 14.7765L13.0003 12.0783L10.303 14.7765L10.1838 14.8742C9.8879 15.0697 9.48464 15.0368 9.22389 14.7765C8.96331 14.5157 8.9306 14.1127 9.12623 13.8166L9.22389 13.6974L11.9212 11.0002L9.22389 8.3029C8.92612 8.00509 8.92645 7.52181 9.22389 7.2238C9.52183 6.92589 10.0051 6.92585 10.303 7.2238L13.0003 9.92106L15.6965 7.2238Z" fill="#CDCDCD"/>
<path d="M39.6965 7.2238C39.9945 6.92589 40.4797 6.92585 40.7776 7.2238C41.0742 7.52179 41.0749 8.00533 40.7776 8.3029L38.0784 11.0002L40.7776 13.6974L40.8743 13.8166C41.0694 14.1125 41.0376 14.5159 40.7776 14.7765C40.5169 15.0372 40.1118 15.0696 39.8157 14.8742L39.6965 14.7765L37.0003 12.0783L34.303 14.7765L34.1838 14.8742C33.8879 15.0697 33.4846 15.0368 33.2239 14.7765C32.9633 14.5157 32.9306 14.1127 33.1262 13.8166L33.2239 13.6974L35.9212 11.0002L33.2239 8.3029C32.9261 8.00509 32.9264 7.52181 33.2239 7.2238C33.5218 6.92589 34.0051 6.92585 34.303 7.2238L37.0003 9.92106L39.6965 7.2238Z" fill="#CDCDCD"/>
<path d="M63.6965 7.2238C63.9945 6.92589 64.4797 6.92585 64.7776 7.2238C65.0742 7.52179 65.0749 8.00533 64.7776 8.3029L62.0784 11.0002L64.7776 13.6974L64.8743 13.8166C65.0694 14.1125 65.0376 14.5159 64.7776 14.7765C64.5169 15.0372 64.1118 15.0696 63.8157 14.8742L63.6965 14.7765L61.0003 12.0783L58.303 14.7765L58.1838 14.8742C57.8879 15.0697 57.4846 15.0368 57.2239 14.7765C56.9633 14.5157 56.9306 14.1127 57.1262 13.8166L57.2239 13.6974L59.9212 11.0002L57.2239 8.3029C56.9261 8.00509 56.9264 7.52181 57.2239 7.2238C57.5218 6.92589 58.0051 6.92585 58.303 7.2238L61.0003 9.92106L63.6965 7.2238Z" fill="#CDCDCD"/>
<path d="M87.6965 7.2238C87.9945 6.92589 88.4797 6.92585 88.7776 7.2238C89.0742 7.52179 89.0749 8.00533 88.7776 8.3029L86.0784 11.0002L88.7776 13.6974L88.8743 13.8166C89.0694 14.1125 89.0376 14.5159 88.7776 14.7765C88.5169 15.0372 88.1118 15.0696 87.8157 14.8742L87.6965 14.7765L85.0003 12.0783L82.303 14.7765L82.1839 14.8742C81.8879 15.0697 81.4846 15.0368 81.2239 14.7765C80.9633 14.5157 80.9306 14.1127 81.1262 13.8166L81.2239 13.6974L83.9212 11.0002L81.2239 8.3029C80.9261 8.00509 80.9264 7.52181 81.2239 7.2238C81.5218 6.92589 82.0051 6.92585 82.303 7.2238L85.0003 9.92106L87.6965 7.2238Z" fill="#CDCDCD"/>
</svg>
